<svg width="80" height="90" viewBox="0 0 80 90" fill="none" xmlns="http://www.w3.org/2000/svg">
<g clip-path="url(#clip0_223_580)">
<path d="M43.6632 88.655C43.7134 88.7303 43.7637 88.7806 43.8139 88.8057C43.7637 88.7554 43.7134 88.7052 43.6632 88.655Z" fill="black"/>
<path d="M28.3743 83.4205C28.4246 83.3703 28.4873 83.3075 28.5626 83.2322C28.3743 83.3451 28.2614 83.5334 28.3743 83.4205Z" fill="black"/>
<path d="M16.9268 86.659C16.6632 87.8641 16.3243 89.1067 15.91 90.2741H21.182C21.182 89.2448 21.2322 88.2281 21.3326 87.2239C21.4833 85.9812 21.6339 84.7385 22.0105 83.5335C22.6883 81.4247 23.8933 79.3536 25.8515 78.2615C28.3745 76.8682 31.1234 77.3954 33.7218 78.1486C37.7511 79.2783 41.818 80.7469 45.3578 83.044C47.1653 84.1737 48.8598 85.5293 50.2531 87.1486C51.1193 88.1277 51.8347 89.182 52.4749 90.2741H55.9393C54.2824 88.8055 52.7385 87.2239 51.2699 85.567C49.8766 84.023 48.5586 82.4038 47.1653 80.8975C45.9979 79.6925 44.8306 78.5251 43.5502 77.4331C43.249 77.1569 42.9226 76.8808 42.5711 76.6046C42.4456 76.5042 42.3075 76.3912 42.1569 76.2657C42.0314 76.1653 41.9435 76.1025 41.8933 76.0774C41.2908 75.6256 40.6757 75.1988 40.0481 74.7971C39.3452 74.3452 38.6172 73.9184 37.864 73.5168C37.4875 73.3159 37.0983 73.1402 36.6967 72.9896C36.659 72.9519 36.5837 72.9143 36.4707 72.8766C36.2824 72.8013 36.0942 72.7636 36.4707 72.8766C36.5209 72.9017 36.5837 72.9268 36.659 72.9519C36.4707 72.8766 36.3201 72.8013 36.1318 72.726C34.8264 72.2239 33.4958 71.8599 32.1402 71.6339C30.7594 71.5084 29.3787 71.521 27.9979 71.6716C26.9059 71.8222 25.7762 72.1235 24.7218 72.5C24.6967 72.5251 24.6716 72.5377 24.6465 72.5377C24.4205 72.6507 24.0816 72.8389 24.6465 72.5377C24.6716 72.5377 24.7218 72.5251 24.7971 72.5C24.6716 72.5502 24.546 72.6005 24.4205 72.6507C24.1444 72.7762 23.8682 72.9143 23.5921 73.0649C23.0649 73.3661 22.5753 73.6674 22.0858 74.0063C22.0105 74.0816 21.9352 74.1569 21.8598 74.2323C21.6339 74.4331 21.408 74.6339 21.182 74.8348C20.9561 75.0607 20.7427 75.2992 20.5419 75.5502C20.5419 75.5502 20.5293 75.5628 20.5042 75.5879C20.3536 75.7762 20.1276 76.1528 20.5042 75.5879C20.5293 75.5628 20.5544 75.5377 20.5795 75.5126C20.5042 75.6256 20.4289 75.7009 20.3536 75.8138C19.9268 76.4164 19.5628 77.044 19.2615 77.6967C19.2113 77.7971 19.1611 77.8975 19.1109 77.9979C19.1862 77.8473 19.2992 77.6967 19.0356 78.1862C18.9101 78.5126 18.7971 78.8389 18.6967 79.1653C17.8682 81.613 17.4916 84.1737 16.9268 86.659Z" fill="black"/>
<path d="M0.357803 39.1361C4.01052 38.6089 7.7009 38.5335 11.3913 38.6089C16.136 38.7218 20.8432 39.0607 25.5879 39.0607C30.3327 39.0607 35.0524 38.8348 39.7469 38.3829C40.9268 38.2825 42.1068 38.157 43.2867 38.0064C43.6381 37.9561 43.977 37.9185 44.3034 37.8934C44.5293 37.8557 45.3578 37.7804 44.567 37.8557C45.1319 37.7804 45.6591 37.7051 46.1863 37.6298C48.5461 37.2783 50.8934 36.8641 53.2281 36.3871C57.4457 35.5587 61.6256 34.5796 65.6549 33.0733C66.1319 32.8725 66.6088 32.6716 67.0858 32.4708C67.2114 32.4457 67.3243 32.408 67.4247 32.3578C67.6256 32.2574 67.839 32.157 68.0649 32.0566C68.9938 31.6298 69.8976 31.1653 70.7762 30.6633C71.7302 30.111 72.6465 29.521 73.5252 28.8934C73.726 28.7428 73.9268 28.6047 74.1277 28.4792C74.203 28.4038 74.2783 28.3411 74.3536 28.2909C74.4791 28.1905 74.6047 28.0775 74.7302 27.952V17.521C74.5796 17.6967 74.4289 17.8725 74.2783 18.0482C70.7009 22.3411 65.8432 25.3536 60.6465 27.2741C55.2992 29.27 49.4624 30.0984 43.7762 30.0984C37.5628 30.1361 31.5001 29.044 25.5879 27.3118C20.203 25.7302 14.8934 23.8474 9.3578 23.0566C6.91011 22.7553 4.42475 22.68 1.93939 22.9812C1.4122 23.0566 0.885 23.157 0.357803 23.2825V39.1361Z" fill="black"/>
<path d="M44.4164 89.295C44.2657 89.1946 44.1151 89.0817 43.9645 88.9561C43.9645 88.931 43.9143 88.8808 43.8139 88.8055C43.7636 88.7553 43.7134 88.7176 43.6632 88.6925C43.5126 88.5921 43.362 88.4917 43.2113 88.3913C42.659 87.9896 42.0942 87.6256 41.5168 87.2992C40.4247 86.6591 39.295 86.0942 38.1277 85.6047C36.8222 85.0775 35.5042 84.6005 34.1737 84.1737C32.7804 83.7595 31.3871 83.2699 29.9938 83.044C29.7176 83.0189 29.4415 83.0063 29.1653 83.0063C29.0147 83.0566 28.8766 83.0942 28.7511 83.1193C28.7009 83.1444 28.6507 83.1695 28.6005 83.1946C28.6005 83.2197 28.5879 83.2323 28.5628 83.2323C28.4624 83.3327 28.3996 83.3955 28.3745 83.4206C28.2992 83.4959 28.2239 83.5712 28.1486 83.6465C28.0733 83.772 27.998 83.885 27.9226 83.9854C27.8473 84.1361 27.772 84.2867 27.6967 84.4373C27.3578 85.3034 27.1695 86.2072 27.0189 87.1109C26.8934 88.1653 26.8431 89.2197 26.8682 90.2741H45.4331C45.1067 89.9478 44.7678 89.6214 44.4164 89.295Z" fill="black"/>
<path d="M43.8139 88.8057C43.8641 88.8559 43.9143 88.9061 43.9645 88.9563C44.0398 88.9939 43.9268 88.9186 43.8139 88.8057Z" fill="black"/>
<path d="M73.5628 68.0188C73.9393 68.0439 74.3284 68.0565 74.7301 68.0565V59.772C72.2448 60.2239 69.8347 60.8264 67.5 61.7678C66.2197 62.3326 64.977 63.0481 63.8473 63.8766C63.8222 63.9017 63.7971 63.9142 63.772 63.9142C63.6213 64.0398 63.4707 64.1778 63.3201 64.3285C63.0439 64.5544 62.7929 64.7929 62.5669 65.0439C62.4163 65.1946 62.2782 65.3452 62.1527 65.4958C62.1276 65.5209 62.1151 65.546 62.1151 65.5711C61.9393 65.7971 61.7887 66.0356 61.6632 66.2866C61.6381 66.4121 61.6004 66.5377 61.5502 66.6632C61.5502 66.7134 61.5628 66.7511 61.5879 66.7762C61.6381 66.8766 61.6883 66.9644 61.7385 67.0398C61.7385 67.0649 61.751 67.0774 61.7761 67.0774C61.8515 67.1276 61.9142 67.1653 61.9644 67.1904C62.0648 67.2657 62.1653 67.3285 62.2657 67.3787C62.8431 67.5795 63.4205 67.7301 63.9979 67.8306C65.4289 67.9812 66.8975 67.9812 68.3284 67.9812C70.0607 68.0188 71.8305 68.0188 73.5628 68.0188Z" fill="black"/>
<path d="M35.3411 53.4081C45.885 51.1487 56.5796 49.4165 66.9729 46.4039C69.5335 45.6508 72.0565 44.8223 74.5796 43.8809C74.6298 43.8558 74.68 43.8307 74.7302 43.8056V34.8433C71.9436 36.5755 68.931 37.9311 65.8055 38.9855C61.6632 40.4165 57.408 41.3579 53.1151 42.1487C48.3327 43.0525 43.475 43.7303 38.6172 44.1445C33.8724 44.5713 29.1277 44.7596 24.3829 44.7094C19.7135 44.6717 15.044 44.3328 10.3745 44.2575C8.03981 44.2198 5.70508 44.2575 3.3327 44.4458C2.73019 44.496 2.14023 44.5587 1.56282 44.6341C1.4373 44.6341 1.32433 44.6466 1.22391 44.6717C0.997971 44.6968 0.759477 44.7345 0.508431 44.7847C0.458222 44.7847 0.408013 44.7847 0.357803 44.7847V48.3621C2.03981 48.337 3.72182 48.3495 5.40383 48.3997C7.55027 48.4751 9.84734 48.3997 11.8432 49.4165C12.8222 49.906 13.726 50.8851 14.0273 52.0148C14.4415 53.4834 13.9896 54.9521 13.0105 56.0818C12.3704 56.7972 11.5419 57.3244 10.7511 57.8516C10.0984 58.2784 9.43312 58.6801 8.75529 59.0567C6.11931 60.4876 3.25738 61.6173 0.357803 62.3328V67.6424C1.63814 66.4123 3.03144 65.2826 4.53772 64.2533C8.98123 61.2408 14.1402 59.3203 19.2239 57.6633C24.4959 55.9311 29.9185 54.6131 35.3411 53.4081Z" fill="black"/>
<path d="M66.408 17.8599C66.3326 17.8975 66.3326 17.8975 66.408 17.8599Z" fill="black"/>
<path d="M19.0733 78.1108C19.0482 78.161 19.0231 78.2113 18.998 78.2615C19.0231 78.2364 19.0356 78.2113 19.0356 78.1862C19.0356 78.161 19.0356 78.1485 19.0356 78.1485C19.0607 78.1485 19.0733 78.1359 19.0733 78.1108Z" fill="black"/>
<path d="M42.1192 76.228C42.0941 76.228 42.0816 76.2155 42.0816 76.1904C42.0063 76.1527 41.8556 76.0397 41.8933 76.0774C41.9686 76.1276 42.0314 76.1778 42.0816 76.228C42.0816 76.228 42.0941 76.228 42.1192 76.228Z" fill="black"/>
<path d="M42.2699 76.341C42.2197 76.3159 42.1695 76.2782 42.1193 76.228C42.1444 76.2531 42.157 76.2657 42.157 76.2657C42.1946 76.3033 42.2323 76.341 42.2699 76.341Z" fill="black"/>
<path d="M57.7091 1.78056C57.7845 1.60482 57.8723 1.44164 57.9727 1.29102H39.7091C40.4372 2.79729 41.2782 4.24081 42.2321 5.62156C42.5334 6.07344 42.8472 6.51277 43.1736 6.93955C43.274 7.03997 43.3619 7.15294 43.4372 7.27846C43.6129 7.4793 43.7886 7.68014 43.9644 7.88097C44.3033 8.2952 44.6798 8.70943 45.0941 9.04834C45.1192 9.07344 45.1317 9.08599 45.1317 9.08599C45.1819 9.1362 45.2447 9.17386 45.32 9.19897C45.4204 9.27428 45.5334 9.34959 45.6589 9.42491C45.8849 9.50022 46.0983 9.55043 46.2991 9.57553C46.6255 9.60064 46.9393 9.60064 47.2405 9.57553C48.1443 9.42491 49.048 9.16131 49.9142 8.8224C51.069 8.2952 52.1485 7.65503 53.1527 6.90189C53.2531 6.82658 53.3535 6.75127 53.4539 6.67595C53.705 6.45001 53.956 6.22407 54.207 5.99813C54.7091 5.54625 55.1861 5.06926 55.638 4.56717C55.864 4.29102 56.0899 4.01487 56.3158 3.73871C56.4162 3.6383 56.5041 3.52533 56.5794 3.3998C56.5292 3.47512 56.479 3.53788 56.4288 3.58809C56.3158 3.77637 56.2029 3.88934 56.4288 3.58809C56.4665 3.51277 56.5418 3.47512 56.5794 3.3998C56.9811 2.87261 57.3577 2.33286 57.7091 1.78056Z" fill="black"/>
<path d="M18.3201 19.2534C24.4206 20.9479 30.3704 23.0944 36.6591 24.0358C41.1779 24.6006 45.772 24.6006 50.3285 24.0358C53.7176 23.5462 57.0314 22.7178 60.1946 21.3998C61.5503 20.835 62.8306 20.1571 64.0733 19.404C64.7009 19.0274 65.3034 18.6383 65.8808 18.2366C66.0566 18.086 66.2448 17.9479 66.4457 17.8224C66.521 17.7471 66.5963 17.6718 66.6716 17.6341C66.772 17.5337 66.885 17.4458 67.0105 17.3705C68.0147 16.517 68.9436 15.6006 69.7971 14.6216C70.0231 14.3705 70.249 14.1069 70.475 13.8308C70.5001 13.8057 70.5126 13.7931 70.5126 13.7931C70.5879 13.7178 70.6632 13.5672 70.7386 13.5295C71.1151 13.0023 71.4666 12.4751 71.793 11.9479C72.4206 10.9437 72.9729 9.88934 73.4499 8.78474C73.8766 7.73035 74.2281 6.6383 74.5042 5.50859C73.7888 3.09855 71.5294 1.29102 68.8557 1.29102H64.2992C62.8683 4.4542 60.9478 7.39144 58.3871 9.80148C56.8432 11.2701 55.0733 12.5881 53.1528 13.5295C50.7804 14.6592 48.1444 15.5253 45.4708 15.1488C42.6842 14.7722 40.726 12.8893 39.0691 10.7806C37.5628 8.86005 36.2448 6.9019 35.1151 4.75545C34.5377 3.62574 34.0231 2.47093 33.5712 1.29102H6.19462C2.95613 1.29102 0.357803 3.88934 0.357803 7.12784V17.5211C6.34525 16.5044 12.521 17.6341 18.3201 19.2534Z" fill="black"/>
<path d="M10.2238 89.3703C10.2238 89.3201 10.2364 89.2824 10.2615 89.2573C10.2615 89.2824 10.2489 89.295 10.2238 89.295C10.2238 89.3201 10.2238 89.3452 10.2238 89.3703Z" fill="black"/>
<path d="M70.5502 13.7553C70.6255 13.68 70.7385 13.567 70.7761 13.4917C70.7761 13.4917 70.7636 13.5043 70.7385 13.5294C70.6632 13.6047 70.6004 13.68 70.5502 13.7553Z" fill="black"/>
<path d="M70.5502 13.7549C70.5502 13.7549 70.5376 13.7674 70.5125 13.7925C70.5125 13.8302 70.4748 13.8302 70.5502 13.7549Z" fill="black"/>
<path d="M1.29928 44.6714C1.27418 44.6714 1.26163 44.6714 1.26163 44.6714C1.41225 44.6338 1.71351 44.5961 1.29928 44.6714Z" fill="black"/>
<path d="M74.316 73.705C71.0775 73.6297 67.8013 73.7804 64.5628 73.5168C62.1151 73.3661 59.4038 72.8013 57.6339 70.9561C56.5419 69.7887 55.8264 68.1318 55.9017 66.5126C56.0147 64.6297 56.8808 63.0481 58.0482 61.6172C59.7051 59.6214 62.0398 58.0774 64.4122 56.9854C66.8599 55.8933 69.3829 55.1025 72.0189 54.5753C72.9227 54.3745 73.8264 54.2113 74.7302 54.0858V49.8306C71.9812 50.8096 69.1946 51.6758 66.408 52.4289C55.9394 55.3285 45.2072 56.9854 34.6256 59.3578C29.2406 60.5628 23.8934 61.9561 18.6967 63.8013C17.4164 64.2281 16.1486 64.6925 14.8934 65.1946C14.6925 65.2699 14.5042 65.3578 14.3285 65.4582C14.3034 65.4582 14.2783 65.4582 14.2532 65.4582C14.0273 65.5712 13.7637 65.6841 13.5377 65.7971C12.9603 66.0481 12.3955 66.3117 11.8432 66.5879C10.7135 67.1402 9.60885 67.7427 8.52935 68.3954C7.92684 68.772 7.34944 69.1611 6.79713 69.5628C6.57119 69.7134 6.34525 69.8766 6.11931 70.0523C6.044 70.1025 5.99379 70.1276 5.96868 70.1276C5.91847 70.2029 5.85571 70.2657 5.7804 70.3159C4.85153 71.0691 3.98542 71.885 3.18207 72.7636C2.7804 73.1653 2.39128 73.5921 2.01471 74.044C1.83897 74.2448 1.66324 74.4582 1.48751 74.6841C1.46241 74.7092 1.4373 74.7343 1.4122 74.7594C1.36199 74.8347 1.32433 74.8975 1.29923 74.9477C0.972866 75.3745 0.659059 75.8138 0.357803 76.2657V84.4373C0.357803 87.6381 2.95613 90.2741 6.19462 90.2741H9.77203C9.89755 90.023 10.0231 89.7594 10.1486 89.4833C10.1737 89.4331 10.1988 89.3703 10.2239 89.295C10.3369 88.9184 10.3745 88.8808 10.3745 88.9561C10.3996 88.8808 10.4247 88.818 10.4499 88.7678C10.6005 88.3661 10.7386 87.9519 10.8641 87.5251C11.1277 86.6214 11.3536 85.7553 11.5419 84.8515C11.9561 83.044 12.2574 81.2364 12.7093 79.4665C13.6507 75.7762 15.3453 72.1988 18.3955 69.7887C21.3704 67.454 24.9101 66.2113 28.6758 65.9477C32.4791 65.6465 36.2072 66.5502 39.634 68.1318C43.1737 69.7511 46.2992 72.1988 49.1235 74.8724C51.0063 76.6799 52.7386 78.6758 54.4708 80.6716C56.3536 82.818 58.3118 84.9268 60.4959 86.772C60.6716 86.9226 60.8473 87.0607 61.0231 87.1862C61.0231 87.1862 61.0984 87.2615 61.3243 87.4498C61.3494 87.4498 61.362 87.4498 61.362 87.4498C61.5126 87.5753 61.6632 87.6883 61.8139 87.7887C62.4164 88.2155 63.0314 88.6046 63.6591 88.9561C63.9603 89.1318 64.2616 89.295 64.5628 89.4456C64.6758 89.4833 64.7888 89.5209 64.8641 89.5586C65.4666 89.7845 66.0942 89.9477 66.7469 90.0481C66.9478 90.0732 67.1486 90.1486 67.3494 90.2741H68.8557C72.0942 90.2741 74.7302 87.6381 74.7302 84.4373V73.705C74.5796 73.705 74.4415 73.705 74.316 73.705Z" fill="black"/>
<path d="M10.3367 89.1067C10.3744 89.0314 10.3744 88.9937 10.3744 88.9561C10.3242 89.0565 10.2865 89.1569 10.2614 89.2573C10.2865 89.2071 10.3116 89.1569 10.3367 89.1067Z" fill="black"/>
<path d="M9.09421 54.3491C9.0691 54.3491 9.05655 54.3491 9.05655 54.3491C9.28249 54.5751 9.32015 54.4621 9.09421 54.3491Z" fill="black"/>
<path d="M61.3244 87.4494C61.2239 87.3741 61.1235 87.2862 61.0231 87.1858C61.0231 87.1858 61.2114 87.3364 61.3244 87.4494Z" fill="black"/>
<path d="M4.01052 54.0101C2.7804 53.985 1.56282 53.9976 0.357803 54.0478V56.4578C1.36199 56.1817 2.34107 55.8427 3.29504 55.4411C4.24902 55.0143 5.17789 54.5499 6.08165 54.0478C5.37872 54.0478 4.68835 54.0352 4.01052 54.0101Z" fill="black"/>
</g>
<defs>
<clipPath id="clip0_223_580">
<rect width="80" height="90" fill="white"/>
</clipPath>
</defs>
</svg>
