<svg width="62" height="62" viewBox="0 0 62 62" fill="none" xmlns="http://www.w3.org/2000/svg">
<path d="M63.0957 20.3972H61.8448L58.8696 17.4215C56.1388 14.691 51.6953 14.6914 48.9642 17.4217L43.0024 23.3838L28.1271 0.853913C27.3487 -0.324974 25.5962 -0.274447 24.8887 0.951159C24.8887 0.951159 23.1672 3.93354 20.8085 8.01813C20.0162 9.38973 19.3441 10.8235 18.7926 12.2989L2.7559 4.2805C1.49068 3.64777 0 4.57047 0 5.98371V14.1426C0 28.447 10.5311 40.2019 24.1413 42.2452L4.63722 61.7493C4.09259 62.2939 3.92971 63.113 4.22437 63.8246C4.51915 64.5361 5.21358 65.0001 5.98368 65.0001H18.222C18.7271 65.0001 19.2113 64.7994 19.5684 64.4423L27.1696 56.8413H33.5198C47.5038 56.8413 58.8809 45.4644 58.8809 31.4802V27.1696L61.8448 24.2057H63.0957C64.1474 24.2057 65 23.3531 65 22.3014C65 21.2497 64.1474 20.3972 63.0957 20.3972ZM24.1066 9.92294C25.0904 8.21948 25.9632 6.70759 26.6466 5.52388L37.1936 21.4981L22.2176 14.0101C22.7193 12.5987 23.352 11.2292 24.1066 9.92294ZM55.63 25.0343C55.2729 25.3914 55.0721 25.8757 55.0721 26.3809V31.4802C55.0721 43.3642 45.4038 53.0327 33.5197 53.0327H26.3809C25.8758 53.0327 25.3915 53.2332 25.0344 53.5905L17.4332 61.1914H10.5812L29.7671 42.0054C30.3117 41.4608 30.4746 40.6417 30.1799 39.9301C29.8851 39.2185 29.1907 38.7545 28.4206 38.7545C14.8495 38.7546 3.80859 27.7136 3.80859 14.1426V9.06499L41.8469 28.0842C42.5801 28.4507 43.4654 28.3071 44.045 27.7275L51.6571 20.115C52.9033 18.8691 54.931 18.8693 56.1765 20.1149L58.363 22.3016L55.63 25.0343Z" fill="currentColor"/>
</svg>
