<svg width="25" height="25" viewBox="0 0 25 25" fill="none" xmlns="http://www.w3.org/2000/svg">
<path d="M16.679 4.35791H18.679C19.2094 4.35791 19.7181 4.56862 20.0932 4.9437C20.4682 5.31877 20.679 5.82748 20.679 6.35791V20.3579C20.679 20.8883 20.4682 21.3971 20.0932 21.7721C19.7181 22.1472 19.2094 22.3579 18.679 22.3579H6.67896C6.14852 22.3579 5.63981 22.1472 5.26474 21.7721C4.88967 21.3971 4.67896 20.8883 4.67896 20.3579V6.35791C4.67896 5.82748 4.88967 5.31877 5.26474 4.9437C5.63981 4.56862 6.14852 4.35791 6.67896 4.35791H8.67896" stroke="currentColor" stroke-width="2" stroke-linecap="round" stroke-linejoin="round"/>
<path d="M15.679 2.35791H9.67896C9.12667 2.35791 8.67896 2.80563 8.67896 3.35791V5.35791C8.67896 5.91019 9.12667 6.35791 9.67896 6.35791H15.679C16.2312 6.35791 16.679 5.91019 16.679 5.35791V3.35791C16.679 2.80563 16.2312 2.35791 15.679 2.35791Z" stroke="currentColor" stroke-width="2" stroke-linecap="round" stroke-linejoin="round"/>
</svg>
