<svg width="242" height="90" viewBox="0 0 242 90" fill="none" xmlns="http://www.w3.org/2000/svg">
<g clip-path="url(#clip0_222_546)">
<path d="M43.4185 88.155C43.4687 88.2303 43.5189 88.2806 43.5691 88.3057C43.5189 88.2554 43.4687 88.2052 43.4185 88.155Z" fill="black"/>
<path d="M28.1296 82.9205C28.1798 82.8703 28.2425 82.8075 28.3179 82.7322C28.1296 82.8451 28.0166 83.0334 28.1296 82.9205Z" fill="black"/>
<path d="M16.682 86.159C16.4184 87.3641 16.0795 88.6067 15.6653 89.7741H20.9373C20.9373 88.7448 20.9875 87.7281 21.0879 86.7239C21.2385 85.4812 21.3891 84.2385 21.7657 83.0335C22.4435 80.9247 23.6485 78.8536 25.6067 77.7615C28.1297 76.3682 30.8787 76.8954 33.477 77.6486C37.5063 78.7783 41.5732 80.2469 45.113 82.544C46.9205 83.6737 48.6151 85.0293 50.0084 86.6486C50.8745 87.6277 51.59 88.682 52.2301 89.7741H55.6946C54.0377 88.3055 52.4937 86.7239 51.0251 85.067C49.6318 83.523 48.3138 81.9038 46.9205 80.3975C45.7532 79.1925 44.5858 78.0251 43.3055 76.9331C43.0042 76.6569 42.6778 76.3808 42.3264 76.1046C42.2009 76.0042 42.0628 75.8912 41.9121 75.7657C41.7866 75.6653 41.6988 75.6025 41.6485 75.5774C41.046 75.1256 40.431 74.6988 39.8034 74.2971C39.1004 73.8452 38.3724 73.4184 37.6193 73.0168C37.2427 72.8159 36.8536 72.6402 36.4519 72.4896C36.4142 72.4519 36.3389 72.4143 36.226 72.3766C36.0377 72.3013 35.8494 72.2636 36.226 72.3766C36.2762 72.4017 36.3389 72.4268 36.4142 72.4519C36.226 72.3766 36.0753 72.3013 35.887 72.226C34.5816 71.7239 33.2511 71.3599 31.8954 71.1339C30.5147 71.0084 29.1339 71.021 27.7531 71.1716C26.6611 71.3222 25.5314 71.6235 24.477 72C24.4519 72.0251 24.4268 72.0377 24.4017 72.0377C24.1757 72.1507 23.8368 72.3389 24.4017 72.0377C24.4268 72.0377 24.477 72.0251 24.5523 72C24.4268 72.0502 24.3013 72.1005 24.1757 72.1507C23.8996 72.2762 23.6234 72.4143 23.3473 72.5649C22.8201 72.8661 22.3306 73.1674 21.841 73.5063C21.7657 73.5816 21.6904 73.6569 21.6151 73.7323C21.3891 73.9331 21.1632 74.1339 20.9373 74.3348C20.7113 74.5607 20.4979 74.7992 20.2971 75.0502C20.2971 75.0502 20.2845 75.0628 20.2594 75.0879C20.1088 75.2762 19.8829 75.6528 20.2594 75.0879C20.2845 75.0628 20.3096 75.0377 20.3347 75.0126C20.2594 75.1256 20.1841 75.2009 20.1088 75.3138C19.682 75.9164 19.318 76.544 19.0167 77.1967C18.9665 77.2971 18.9163 77.3975 18.8661 77.4979C18.9414 77.3473 19.0544 77.1967 18.7908 77.6862C18.6653 78.0126 18.5523 78.3389 18.4519 78.6653C17.6234 81.113 17.2469 83.6737 16.682 86.159Z" fill="black"/>
<path d="M0.113037 38.6361C3.76576 38.1089 7.45613 38.0335 11.1465 38.1089C15.8913 38.2218 20.5984 38.5607 25.3432 38.5607C30.0879 38.5607 34.8076 38.3348 39.5022 37.8829C40.6821 37.7825 41.862 37.657 43.0419 37.5064C43.3934 37.4561 43.7323 37.4185 44.0586 37.3934C44.2846 37.3557 45.113 37.2804 44.3222 37.3557C44.8871 37.2804 45.4143 37.2051 45.9415 37.1298C48.3013 36.7783 50.6486 36.3641 52.9833 35.8871C57.2009 35.0587 61.3808 34.0796 65.4101 32.5733C65.8871 32.3725 66.3641 32.1716 66.8411 31.9708C66.9666 31.9457 67.0796 31.908 67.18 31.8578C67.3808 31.7574 67.5942 31.657 67.8202 31.5566C68.749 31.1298 69.6528 30.6653 70.5314 30.1633C71.4854 29.611 72.4017 29.021 73.2804 28.3934C73.4812 28.2428 73.6821 28.1047 73.8829 27.9792C73.9582 27.9038 74.0335 27.8411 74.1089 27.7909C74.2344 27.6905 74.3599 27.5775 74.4854 27.452V17.021C74.3348 17.1967 74.1842 17.3725 74.0335 17.5482C70.4561 21.8411 65.5984 24.8536 60.4017 26.7741C55.0545 28.77 49.2176 29.5984 43.5314 29.5984C37.3181 29.6361 31.2553 28.544 25.3432 26.8118C19.9582 25.2302 14.6486 23.3474 9.11304 22.5566C6.66534 22.2553 4.17998 22.18 1.69463 22.4812C1.16743 22.5566 0.640234 22.657 0.113037 22.7825V38.6361Z" fill="black"/>
<path d="M44.1716 88.795C44.021 88.6946 43.8703 88.5817 43.7197 88.4561C43.7197 88.431 43.6695 88.3808 43.5691 88.3055C43.5189 88.2553 43.4687 88.2176 43.4185 88.1925C43.2678 88.0921 43.1172 87.9917 42.9666 87.8913C42.4143 87.4896 41.8494 87.1256 41.272 86.7992C40.18 86.1591 39.0503 85.5942 37.8829 85.1047C36.5775 84.5775 35.2595 84.1005 33.9289 83.6737C32.5356 83.2595 31.1423 82.7699 29.749 82.544C29.4729 82.5189 29.1967 82.5063 28.9206 82.5063C28.7699 82.5566 28.6318 82.5942 28.5063 82.6193C28.4561 82.6444 28.4059 82.6695 28.3557 82.6946C28.3557 82.7197 28.3431 82.7323 28.318 82.7323C28.2176 82.8327 28.1549 82.8955 28.1298 82.9206C28.0544 82.9959 27.9791 83.0712 27.9038 83.1465C27.8285 83.272 27.7532 83.385 27.6779 83.4854C27.6026 83.6361 27.5272 83.7867 27.4519 83.9373C27.113 84.8034 26.9247 85.7072 26.7741 86.6109C26.6486 87.6653 26.5984 88.7197 26.6235 89.7741H45.1883C44.862 89.4478 44.5231 89.1214 44.1716 88.795Z" fill="black"/>
<path d="M43.5691 88.3057C43.6193 88.3559 43.6695 88.4061 43.7197 88.4563C43.795 88.4939 43.6821 88.4186 43.5691 88.3057Z" fill="black"/>
<path d="M73.318 67.5188C73.6946 67.5439 74.0837 67.5565 74.4854 67.5565V59.272C72 59.7239 69.59 60.3264 67.2552 61.2678C65.9749 61.8326 64.7322 62.5481 63.6025 63.3766C63.5774 63.4017 63.5523 63.4142 63.5272 63.4142C63.3766 63.5398 63.2259 63.6778 63.0753 63.8285C62.7992 64.0544 62.5481 64.2929 62.3222 64.5439C62.1715 64.6946 62.0335 64.8452 61.9079 64.9958C61.8828 65.0209 61.8703 65.046 61.8703 65.0711C61.6946 65.2971 61.5439 65.5356 61.4184 65.7866C61.3933 65.9121 61.3556 66.0377 61.3054 66.1632C61.3054 66.2134 61.318 66.2511 61.3431 66.2762C61.3933 66.3766 61.4435 66.4644 61.4937 66.5398C61.4937 66.5649 61.5063 66.5774 61.5314 66.5774C61.6067 66.6276 61.6694 66.6653 61.7197 66.6904C61.8201 66.7657 61.9205 66.8285 62.0209 66.8787C62.5983 67.0795 63.1757 67.2301 63.7531 67.3306C65.1841 67.4812 66.6527 67.4812 68.0837 67.4812C69.8159 67.5188 71.5858 67.5188 73.318 67.5188Z" fill="black"/>
<path d="M35.0963 52.9081C45.6402 50.6487 56.3348 48.9165 66.7281 45.9039C69.2888 45.1508 71.8118 44.3223 74.3348 43.3809C74.385 43.3558 74.4352 43.3307 74.4854 43.3056V34.3433C71.6988 36.0755 68.6863 37.4311 65.5607 38.4855C61.4185 39.9165 57.1632 40.8579 52.8704 41.6487C48.0879 42.5525 43.2302 43.2303 38.3725 43.6445C33.6277 44.0713 28.8829 44.2596 24.1381 44.2094C19.4687 44.1717 14.7992 43.8328 10.1298 43.7575C7.79505 43.7198 5.46032 43.7575 3.08793 43.9458C2.48542 43.996 1.89546 44.0587 1.31806 44.1341C1.19254 44.1341 1.07956 44.1466 0.979146 44.1717C0.753204 44.1968 0.514711 44.2345 0.263665 44.2847C0.213456 44.2847 0.163246 44.2847 0.113037 44.2847V47.8621C1.79505 47.837 3.47705 47.8495 5.15906 47.8997C7.30551 47.9751 9.60258 47.8997 11.5984 48.9165C12.5775 49.406 13.4812 50.3851 13.7825 51.5148C14.1967 52.9834 13.7448 54.4521 12.7658 55.5818C12.1256 56.2972 11.2971 56.8244 10.5063 57.3516C9.85362 57.7784 9.18835 58.1801 8.51053 58.5567C5.87454 59.9876 3.01262 61.1173 0.113037 61.8328V67.1424C1.39337 65.9123 2.78668 64.7826 4.29295 63.7533C8.73647 60.7408 13.8955 58.8203 18.9791 57.1633C24.2511 55.4311 29.6737 54.1131 35.0963 52.9081Z" fill="black"/>
<path d="M66.1632 17.3599C66.0879 17.3975 66.0879 17.3975 66.1632 17.3599Z" fill="black"/>
<path d="M18.8285 77.6108C18.8034 77.661 18.7783 77.7113 18.7532 77.7615C18.7783 77.7364 18.7908 77.7113 18.7908 77.6862C18.7908 77.661 18.7908 77.6485 18.7908 77.6485C18.816 77.6485 18.8285 77.6359 18.8285 77.6108Z" fill="black"/>
<path d="M41.8745 75.728C41.8494 75.728 41.8368 75.7155 41.8368 75.6904C41.7615 75.6527 41.6109 75.5397 41.6485 75.5774C41.7238 75.6276 41.7866 75.6778 41.8368 75.728C41.8368 75.728 41.8494 75.728 41.8745 75.728Z" fill="black"/>
<path d="M42.0252 75.841C41.975 75.8159 41.9248 75.7782 41.8745 75.728C41.8996 75.7531 41.9122 75.7657 41.9122 75.7657C41.9499 75.8033 41.9875 75.841 42.0252 75.841Z" fill="black"/>
<path d="M57.4644 1.28056C57.5397 1.10482 57.6276 0.941643 57.728 0.791016H39.4644C40.1924 2.29729 41.0334 3.74081 41.9874 5.12156C42.2887 5.57344 42.6025 6.01277 42.9288 6.43955C43.0292 6.53997 43.1171 6.65294 43.1924 6.77846C43.3681 6.9793 43.5439 7.18014 43.7196 7.38097C44.0585 7.7952 44.4351 8.20943 44.8493 8.54834C44.8744 8.57344 44.887 8.58599 44.887 8.58599C44.9372 8.6362 44.9999 8.67386 45.0753 8.69897C45.1757 8.77428 45.2887 8.84959 45.4142 8.92491C45.6401 9.00022 45.8535 9.05043 46.0543 9.07553C46.3807 9.10064 46.6945 9.10064 46.9958 9.07553C47.8995 8.92491 48.8033 8.66131 49.6694 8.3224C50.8242 7.7952 51.9037 7.15503 52.9079 6.40189C53.0083 6.32658 53.1087 6.25127 53.2092 6.17595C53.4602 5.95001 53.7112 5.72407 53.9623 5.49813C54.4644 5.04625 54.9414 4.56926 55.3933 4.06717C55.6192 3.79102 55.8451 3.51487 56.0711 3.23871C56.1715 3.1383 56.2594 3.02533 56.3347 2.8998C56.2845 2.97512 56.2343 3.03788 56.1841 3.08809C56.0711 3.27637 55.9581 3.38934 56.1841 3.08809C56.2217 3.01277 56.297 2.97512 56.3347 2.8998C56.7364 2.37261 57.1129 1.83286 57.4644 1.28056Z" fill="black"/>
<path d="M18.0754 18.7534C24.1758 20.4479 30.1256 22.5944 36.4143 23.5358C40.9331 24.1006 45.5273 24.1006 50.0838 23.5358C53.4729 23.0462 56.7867 22.2178 59.9499 20.8998C61.3055 20.335 62.5858 19.6571 63.8285 18.904C64.4561 18.5274 65.0586 18.1383 65.6361 17.7366C65.8118 17.586 66.0001 17.4479 66.2009 17.3224C66.2762 17.2471 66.3515 17.1718 66.4268 17.1341C66.5273 17.0337 66.6402 16.9458 66.7658 16.8705C67.7699 16.017 68.6988 15.1006 69.5524 14.1216C69.7783 13.8705 70.0043 13.6069 70.2302 13.3308C70.2553 13.3057 70.2679 13.2931 70.2679 13.2931C70.3432 13.2178 70.4185 13.0672 70.4938 13.0295C70.8704 12.5023 71.2218 11.9751 71.5482 11.4479C72.1758 10.4437 72.7281 9.38934 73.2051 8.28474C73.6319 7.23035 73.9833 6.1383 74.2595 5.00859C73.544 2.59855 71.2846 0.791016 68.6109 0.791016H64.0545C62.6235 3.9542 60.703 6.89144 58.1423 9.30148C56.5984 10.7701 54.8285 12.0881 52.908 13.0295C50.5356 14.1592 47.8996 15.0253 45.226 14.6488C42.4394 14.2722 40.4812 12.3893 38.8243 10.2806C37.3181 8.36005 36.0001 6.4019 34.8704 4.25545C34.293 3.12574 33.7783 1.97093 33.3264 0.791016H5.94986C2.71136 0.791016 0.113037 3.38934 0.113037 6.62784V17.0211C6.10049 16.0044 12.2762 17.1341 18.0754 18.7534Z" fill="black"/>
<path d="M9.97903 88.8703C9.97903 88.8201 9.99159 88.7824 10.0167 88.7573C10.0167 88.7824 10.0041 88.795 9.97903 88.795C9.97903 88.8201 9.97903 88.8452 9.97903 88.8703Z" fill="black"/>
<path d="M70.3054 13.2553C70.3807 13.18 70.4937 13.067 70.5314 12.9917C70.5314 12.9917 70.5188 13.0043 70.4937 13.0294C70.4184 13.1047 70.3556 13.18 70.3054 13.2553Z" fill="black"/>
<path d="M70.3054 13.2549C70.3054 13.2549 70.2928 13.2674 70.2677 13.2925C70.2677 13.3302 70.2301 13.3302 70.3054 13.2549Z" fill="black"/>
<path d="M1.05452 44.1714C1.02941 44.1714 1.01686 44.1714 1.01686 44.1714C1.16749 44.1338 1.46874 44.0961 1.05452 44.1714Z" fill="black"/>
<path d="M74.0712 73.205C70.8327 73.1297 67.5566 73.2804 64.3181 73.0168C61.8704 72.8661 59.1591 72.3013 57.3892 70.4561C56.2971 69.2887 55.5817 67.6318 55.657 66.0126C55.7699 64.1297 56.636 62.5481 57.8034 61.1172C59.4603 59.1214 61.795 57.5774 64.1674 56.4854C66.6151 55.3933 69.1381 54.6025 71.7741 54.0753C72.6779 53.8745 73.5817 53.7113 74.4854 53.5858V49.3306C71.7365 50.3096 68.9499 51.1758 66.1632 51.9289C55.6946 54.8285 44.9624 56.4854 34.3808 58.8578C28.9959 60.0628 23.6486 61.4561 18.4519 63.3013C17.1716 63.7281 15.9038 64.1925 14.6486 64.6946C14.4478 64.7699 14.2595 64.8578 14.0837 64.9582C14.0586 64.9582 14.0335 64.9582 14.0084 64.9582C13.7825 65.0712 13.5189 65.1841 13.293 65.2971C12.7155 65.5481 12.1507 65.8117 11.5984 66.0879C10.4687 66.6402 9.36408 67.2427 8.28459 67.8954C7.68207 68.272 7.10467 68.6611 6.55237 69.0628C6.32643 69.2134 6.10048 69.3766 5.87454 69.5523C5.79923 69.6025 5.74902 69.6276 5.72392 69.6276C5.67371 69.7029 5.61094 69.7657 5.53563 69.8159C4.60676 70.5691 3.74065 71.385 2.9373 72.2636C2.53563 72.6653 2.14651 73.0921 1.76994 73.544C1.59421 73.7448 1.41848 73.9582 1.24274 74.1841C1.21764 74.2092 1.19253 74.2343 1.16743 74.2594C1.11722 74.3347 1.07956 74.3975 1.05446 74.4477C0.7281 74.8745 0.414292 75.3138 0.113037 75.7657V83.9373C0.113037 87.1381 2.71136 89.7741 5.94986 89.7741H9.52726C9.65279 89.523 9.77831 89.2594 9.90383 88.9833C9.92894 88.9331 9.95404 88.8703 9.97915 88.795C10.0921 88.4184 10.1298 88.3808 10.1298 88.4561C10.1549 88.3808 10.18 88.318 10.2051 88.2678C10.3557 87.8661 10.4938 87.4519 10.6193 87.0251C10.8829 86.1214 11.1089 85.2553 11.2971 84.3515C11.7114 82.544 12.0126 80.7364 12.4645 78.9665C13.4059 75.2762 15.1005 71.6988 18.1507 69.2887C21.1256 66.954 24.6653 65.7113 28.431 65.4477C32.2344 65.1465 35.9624 66.0502 39.3892 67.6318C42.9289 69.2511 46.0545 71.6988 48.8787 74.3724C50.7616 76.1799 52.4938 78.1758 54.226 80.1716C56.1089 82.318 58.067 84.4268 60.2511 86.272C60.4268 86.4226 60.6026 86.5607 60.7783 86.6862C60.7783 86.6862 60.8536 86.7615 61.0796 86.9498C61.1047 86.9498 61.1172 86.9498 61.1172 86.9498C61.2678 87.0753 61.4185 87.1883 61.5691 87.2887C62.1716 87.7155 62.7867 88.1046 63.4143 88.4561C63.7155 88.6318 64.0168 88.795 64.3181 88.9456C64.431 88.9833 64.544 89.0209 64.6193 89.0586C65.2218 89.2845 65.8494 89.4477 66.5022 89.5481C66.703 89.5732 66.9038 89.6486 67.1047 89.7741H68.6109C71.8494 89.7741 74.4854 87.1381 74.4854 83.9373V73.205C74.3348 73.205 74.1967 73.205 74.0712 73.205Z" fill="black"/>
<path d="M10.0919 88.6067C10.1296 88.5314 10.1296 88.4937 10.1296 88.4561C10.0794 88.5565 10.0417 88.6569 10.0166 88.7573C10.0417 88.7071 10.0668 88.6569 10.0919 88.6067Z" fill="black"/>
<path d="M8.84944 53.8491C8.82434 53.8491 8.81178 53.8491 8.81178 53.8491C9.03772 54.0751 9.07538 53.9621 8.84944 53.8491Z" fill="black"/>
<path d="M61.0796 86.9494C60.9792 86.8741 60.8787 86.7862 60.7783 86.6858C60.7783 86.6858 60.9666 86.8364 61.0796 86.9494Z" fill="black"/>
<path d="M3.76576 53.5101C2.53563 53.485 1.31806 53.4976 0.113037 53.5478V55.9578C1.11722 55.6817 2.0963 55.3427 3.05028 54.9411C4.00425 54.5143 4.93312 54.0499 5.83689 53.5478C5.13396 53.5478 4.44358 53.5352 3.76576 53.5101Z" fill="black"/>
<path d="M87.2443 2.68373L93.5989 22.659H93.8428L100.21 2.68373H106.372L97.3089 28.9751H90.1455L81.0694 2.68373H87.2443ZM116.196 29.3602C114.168 29.3602 112.422 28.9494 110.958 28.1278C109.504 27.2977 108.382 26.1252 107.595 24.6103C106.808 23.0869 106.414 21.2854 106.414 19.2057C106.414 17.1774 106.808 15.3972 107.595 13.8653C108.382 12.3333 109.491 11.1394 110.92 10.2836C112.358 9.42774 114.044 8.99982 115.978 8.99982C117.279 8.99982 118.49 9.2095 119.611 9.62886C120.741 10.0397 121.725 10.6601 122.564 11.4903C123.411 12.3205 124.07 13.3646 124.541 14.6227C125.011 15.8722 125.247 17.3357 125.247 19.0131V20.5151H108.596V17.126H120.099C120.099 16.3386 119.928 15.6411 119.585 15.0335C119.243 14.4258 118.768 13.9508 118.16 13.6085C117.561 13.2576 116.864 13.0822 116.068 13.0822C115.238 13.0822 114.502 13.2747 113.86 13.6599C113.226 14.0364 112.73 14.5457 112.371 15.1875C112.011 15.8209 111.827 16.5269 111.819 17.3057V20.528C111.819 21.5036 111.998 22.3466 112.358 23.057C112.726 23.7673 113.244 24.3151 113.911 24.7002C114.579 25.0853 115.37 25.2779 116.286 25.2779C116.894 25.2779 117.45 25.1923 117.955 25.0211C118.46 24.85 118.892 24.5932 119.252 24.2509C119.611 23.9085 119.885 23.4892 120.073 22.9928L125.131 23.3266C124.874 24.5419 124.348 25.6031 123.552 26.5103C122.765 27.4089 121.746 28.1107 120.497 28.6156C119.256 29.112 117.822 29.3602 116.196 29.3602ZM139.304 9.25657V13.3646H127.429V9.25657H139.304ZM130.125 4.53234H135.594V22.9158C135.594 23.4207 135.671 23.8144 135.825 24.0968C135.979 24.3707 136.193 24.5632 136.467 24.6745C136.749 24.7858 137.074 24.8414 137.442 24.8414C137.699 24.8414 137.956 24.82 138.213 24.7772C138.469 24.7259 138.666 24.6873 138.803 24.6617L139.663 28.7312C139.389 28.8168 139.004 28.9152 138.508 29.0264C138.012 29.1463 137.408 29.219 136.698 29.2447C135.38 29.296 134.224 29.1206 133.232 28.7183C132.247 28.3161 131.481 27.6913 130.934 26.8441C130.386 25.9968 130.116 24.927 130.125 23.6347V4.53234ZM151.641 29.3602C149.612 29.3602 147.867 28.9494 146.403 28.1278C144.948 27.2977 143.827 26.1252 143.04 24.6103C142.252 23.0869 141.859 21.2854 141.859 19.2057C141.859 17.1774 142.252 15.3972 143.04 13.8653C143.827 12.3333 144.935 11.1394 146.365 10.2836C147.802 9.42774 149.488 8.99982 151.423 8.99982C152.723 8.99982 153.934 9.2095 155.056 9.62886C156.185 10.0397 157.169 10.6601 158.008 11.4903C158.855 12.3205 159.514 13.3646 159.985 14.6227C160.456 15.8722 160.691 17.3357 160.691 19.0131V20.5151H144.041V17.126H155.543C155.543 16.3386 155.372 15.6411 155.03 15.0335C154.688 14.4258 154.213 13.9508 153.605 13.6085C153.006 13.2576 152.308 13.0822 151.512 13.0822C150.682 13.0822 149.946 13.2747 149.304 13.6599C148.671 14.0364 148.175 14.5457 147.815 15.1875C147.456 15.8209 147.272 16.5269 147.263 17.3057V20.528C147.263 21.5036 147.443 22.3466 147.802 23.057C148.17 23.7673 148.688 24.3151 149.356 24.7002C150.023 25.0853 150.815 25.2779 151.731 25.2779C152.338 25.2779 152.895 25.1923 153.4 25.0211C153.904 24.85 154.337 24.5932 154.696 24.2509C155.056 23.9085 155.329 23.4892 155.518 22.9928L160.576 23.3266C160.319 24.5419 159.793 25.6031 158.997 26.5103C158.209 27.4089 157.191 28.1107 155.941 28.6156C154.7 29.112 153.267 29.3602 151.641 29.3602ZM173.169 29.3602C171.15 29.3602 169.412 28.9323 167.957 28.0765C166.511 27.2121 165.398 26.0139 164.62 24.4819C163.849 22.95 163.464 21.187 163.464 19.1929C163.464 17.1731 163.854 15.4015 164.632 13.8781C165.42 12.3462 166.537 11.1523 167.983 10.2964C169.429 9.43202 171.15 8.99982 173.144 8.99982C174.864 8.99982 176.37 9.3122 177.663 9.93696C178.955 10.5617 179.978 11.439 180.731 12.5687C181.484 13.6984 181.899 15.0249 181.976 16.5483H176.815C176.67 15.5641 176.285 14.7725 175.66 14.1734C175.044 13.5657 174.235 13.2619 173.234 13.2619C172.386 13.2619 171.646 13.493 171.013 13.9551C170.388 14.4087 169.9 15.072 169.549 15.945C169.198 16.8179 169.023 17.8749 169.023 19.1158C169.023 20.3739 169.194 21.4437 169.536 22.3252C169.887 23.2067 170.379 23.8786 171.013 24.3407C171.646 24.8029 172.386 25.034 173.234 25.034C173.858 25.034 174.419 24.9056 174.915 24.6488C175.42 24.3921 175.835 24.0198 176.161 23.532C176.494 23.0356 176.713 22.4408 176.815 21.7475H181.976C181.89 23.2538 181.48 24.5804 180.744 25.7272C180.016 26.8655 179.01 27.7555 177.727 28.3974C176.443 29.0393 174.924 29.3602 173.169 29.3602ZM190.946 17.5753V28.9751H185.477V2.68373H190.792V12.7356H191.023C191.468 11.5716 192.187 10.6601 193.18 10.0012C194.173 9.3336 195.418 8.99982 196.916 8.99982C198.285 8.99982 199.479 9.29937 200.497 9.89845C201.524 10.489 202.32 11.3405 202.885 12.4531C203.459 13.5572 203.741 14.8794 203.732 16.4199V28.9751H198.264V17.3956C198.272 16.1803 197.964 15.2346 197.339 14.5585C196.723 13.8824 195.859 13.5443 194.746 13.5443C194.002 13.5443 193.343 13.7027 192.769 14.0193C192.204 14.336 191.759 14.7981 191.434 15.4058C191.117 16.0049 190.955 16.728 190.946 17.5753Z" fill="black"/>
<path d="M81.2853 51.9751V41.066H85.3762C86.2142 41.066 86.9174 41.2223 87.4855 41.5348C88.0573 41.8473 88.4887 42.2769 88.7799 42.8238C89.0747 43.3671 89.222 43.985 89.222 44.6775C89.222 45.3771 89.0747 45.9985 88.7799 46.5419C88.4852 47.0852 88.0502 47.5131 87.4749 47.8256C86.8996 48.1345 86.1911 48.289 85.3495 48.289H82.6382V46.6644H85.0832C85.5733 46.6644 85.9745 46.5791 86.287 46.4087C86.5995 46.2382 86.8304 46.0039 86.9795 45.7056C87.1322 45.4073 87.2085 45.0646 87.2085 44.6775C87.2085 44.2904 87.1322 43.9495 86.9795 43.6548C86.8304 43.36 86.5978 43.131 86.2817 42.9676C85.9692 42.8007 85.5661 42.7173 85.0725 42.7173H83.2615V51.9751H81.2853ZM93.1886 51.9751V41.066H97.2795C98.1176 41.066 98.8207 41.2116 99.3889 41.5028C99.9606 41.794 100.392 42.2024 100.683 42.7279C100.978 43.25 101.125 43.859 101.125 44.555C101.125 45.2546 100.976 45.8618 100.678 46.3767C100.383 46.8881 99.9482 47.284 99.3729 47.5646C98.7976 47.8416 98.0909 47.9801 97.2528 47.9801H94.3391V46.3394H96.9865C97.4766 46.3394 97.8778 46.272 98.1903 46.137C98.5028 45.9985 98.7337 45.7979 98.8828 45.5351C99.0355 45.2688 99.1119 44.9421 99.1119 44.555C99.1119 44.1679 99.0355 43.8377 98.8828 43.5642C98.7301 43.2872 98.4975 43.0777 98.185 42.9357C97.8725 42.7901 97.4695 42.7173 96.9759 42.7173H95.1648V51.9751H93.1886ZM98.8242 47.0319L101.525 51.9751H99.3196L96.6669 47.0319H98.8242ZM114.942 46.5206C114.942 47.696 114.722 48.7027 114.282 49.5408C113.845 50.3753 113.248 51.0145 112.492 51.4584C111.739 51.9023 110.885 52.1242 109.93 52.1242C108.975 52.1242 108.119 51.9023 107.362 51.4584C106.61 51.011 106.013 50.37 105.573 49.5355C105.136 48.6974 104.917 47.6924 104.917 46.5206C104.917 45.3451 105.136 44.3402 105.573 43.5056C106.013 42.6676 106.61 42.0266 107.362 41.5827C108.119 41.1388 108.975 40.9169 109.93 40.9169C110.885 40.9169 111.739 41.1388 112.492 41.5827C113.248 42.0266 113.845 42.6676 114.282 43.5056C114.722 44.3402 114.942 45.3451 114.942 46.5206ZM112.955 46.5206C112.955 45.6931 112.826 44.9953 112.567 44.4272C112.311 43.8554 111.956 43.424 111.501 43.1328C111.047 42.838 110.523 42.6907 109.93 42.6907C109.337 42.6907 108.813 42.838 108.358 43.1328C107.904 43.424 107.547 43.8554 107.288 44.4272C107.032 44.9953 106.904 45.6931 106.904 46.5206C106.904 47.348 107.032 48.0475 107.288 48.6193C107.547 49.1875 107.904 49.6189 108.358 49.9137C108.813 50.2049 109.337 50.3505 109.93 50.3505C110.523 50.3505 111.047 50.2049 111.501 49.9137C111.956 49.6189 112.311 49.1875 112.567 48.6193C112.826 48.0475 112.955 47.348 112.955 46.5206ZM128.398 44.7468H126.406C126.349 44.4201 126.245 44.1306 126.092 43.8785C125.939 43.6228 125.749 43.4062 125.522 43.2286C125.295 43.0511 125.035 42.9179 124.744 42.8291C124.457 42.7368 124.146 42.6907 123.812 42.6907C123.219 42.6907 122.693 42.8398 122.235 43.1381C121.777 43.4328 121.419 43.8661 121.159 44.4378C120.9 45.006 120.771 45.7002 120.771 46.5206C120.771 47.3551 120.9 48.0582 121.159 48.6299C121.422 49.1981 121.781 49.6278 122.235 49.919C122.693 50.2066 123.217 50.3505 123.807 50.3505C124.133 50.3505 124.439 50.3078 124.723 50.2226C125.011 50.1338 125.268 50.0042 125.495 49.8338C125.726 49.6633 125.92 49.4538 126.076 49.2052C126.236 48.9566 126.346 48.6725 126.406 48.3529L128.398 48.3636C128.324 48.8821 128.162 49.3686 127.914 49.8231C127.669 50.2777 127.347 50.6789 126.949 51.0269C126.552 51.3714 126.087 51.6413 125.554 51.8366C125.021 52.0284 124.43 52.1242 123.78 52.1242C122.821 52.1242 121.965 51.9023 121.213 51.4584C120.46 51.0145 119.867 50.3735 119.434 49.5355C119 48.6974 118.784 47.6924 118.784 46.5206C118.784 45.3451 119.002 44.3402 119.439 43.5056C119.876 42.6676 120.47 42.0266 121.223 41.5827C121.976 41.1388 122.828 40.9169 123.78 40.9169C124.387 40.9169 124.952 41.0021 125.474 41.1725C125.996 41.343 126.461 41.5934 126.87 41.9236C127.278 42.2503 127.614 42.6516 127.876 43.1274C128.143 43.5997 128.317 44.1395 128.398 44.7468ZM132.458 51.9751V41.066H139.553V42.7226H134.434V45.6843H139.186V47.3409H134.434V50.3185H139.596V51.9751H132.458ZM149.748 44.0649C149.698 43.5997 149.489 43.2375 149.12 42.9783C148.754 42.7191 148.278 42.5894 147.692 42.5894C147.28 42.5894 146.927 42.6516 146.632 42.7759C146.337 42.9002 146.112 43.0688 145.955 43.2819C145.799 43.495 145.719 43.7382 145.716 44.0117C145.716 44.2389 145.767 44.436 145.87 44.6029C145.977 44.7698 146.121 44.9119 146.302 45.0291C146.483 45.1427 146.683 45.2386 146.904 45.3167C147.124 45.3948 147.346 45.4605 147.569 45.5138L148.592 45.7695C149.004 45.8654 149.4 45.995 149.78 46.1583C150.164 46.3217 150.506 46.5277 150.808 46.7762C151.113 47.0248 151.355 47.3249 151.533 47.6764C151.71 48.028 151.799 48.4399 151.799 48.9122C151.799 49.5514 151.635 50.1143 151.309 50.6008C150.982 51.0838 150.51 51.462 149.892 51.7354C149.278 52.0053 148.534 52.1402 147.66 52.1402C146.811 52.1402 146.074 52.0088 145.449 51.746C144.828 51.4833 144.341 51.0997 143.99 50.5955C143.642 50.0912 143.454 49.4769 143.425 48.7524H145.37C145.398 49.1324 145.515 49.4485 145.721 49.7006C145.927 49.9527 146.195 50.1409 146.525 50.2652C146.859 50.3895 147.232 50.4517 147.644 50.4517C148.074 50.4517 148.45 50.3877 148.773 50.2599C149.1 50.1285 149.356 49.9474 149.54 49.7166C149.725 49.4822 149.819 49.2088 149.823 48.8963C149.819 48.6122 149.736 48.3778 149.572 48.1931C149.409 48.0049 149.18 47.8487 148.885 47.7244C148.594 47.5965 148.253 47.4829 147.862 47.3835L146.621 47.0639C145.723 46.8331 145.013 46.4833 144.491 46.0145C143.972 45.5422 143.713 44.9154 143.713 44.1342C143.713 43.4914 143.887 42.9286 144.235 42.4456C144.586 41.9627 145.064 41.588 145.668 41.3217C146.271 41.0518 146.955 40.9169 147.719 40.9169C148.493 40.9169 149.171 41.0518 149.753 41.3217C150.339 41.588 150.799 41.9591 151.133 42.435C151.467 42.9073 151.639 43.4506 151.65 44.0649H149.748ZM161.739 44.0649C161.69 43.5997 161.48 43.2375 161.111 42.9783C160.745 42.7191 160.269 42.5894 159.683 42.5894C159.271 42.5894 158.918 42.6516 158.623 42.7759C158.328 42.9002 158.103 43.0688 157.947 43.2819C157.79 43.495 157.711 43.7382 157.707 44.0117C157.707 44.2389 157.758 44.436 157.861 44.6029C157.968 44.7698 158.112 44.9119 158.293 45.0291C158.474 45.1427 158.675 45.2386 158.895 45.3167C159.115 45.3948 159.337 45.4605 159.561 45.5138L160.583 45.7695C160.995 45.8654 161.391 45.995 161.771 46.1583C162.155 46.3217 162.497 46.5277 162.799 46.7762C163.105 47.0248 163.346 47.3249 163.524 47.6764C163.701 48.028 163.79 48.4399 163.79 48.9122C163.79 49.5514 163.627 50.1143 163.3 50.6008C162.973 51.0838 162.501 51.462 161.883 51.7354C161.269 52.0053 160.525 52.1402 159.651 52.1402C158.802 52.1402 158.066 52.0088 157.441 51.746C156.819 51.4833 156.333 51.0997 155.981 50.5955C155.633 50.0912 155.445 49.4769 155.416 48.7524H157.361C157.389 49.1324 157.506 49.4485 157.712 49.7006C157.918 49.9527 158.186 50.1409 158.517 50.2652C158.85 50.3895 159.223 50.4517 159.635 50.4517C160.065 50.4517 160.441 50.3877 160.764 50.2599C161.091 50.1285 161.347 49.9474 161.532 49.7166C161.716 49.4822 161.81 49.2088 161.814 48.8963C161.81 48.6122 161.727 48.3778 161.563 48.1931C161.4 48.0049 161.171 47.8487 160.876 47.7244C160.585 47.5965 160.244 47.4829 159.854 47.3835L158.612 47.0639C157.714 46.8331 157.004 46.4833 156.482 46.0145C155.963 45.5422 155.704 44.9154 155.704 44.1342C155.704 43.4914 155.878 42.9286 156.226 42.4456C156.578 41.9627 157.055 41.588 157.659 41.3217C158.263 41.0518 158.946 40.9169 159.71 40.9169C160.484 40.9169 161.162 41.0518 161.745 41.3217C162.331 41.588 162.79 41.9591 163.124 42.435C163.458 42.9073 163.63 43.4506 163.641 44.0649H161.739ZM177.55 46.5206C177.55 47.696 177.33 48.7027 176.889 49.5408C176.452 50.3753 175.856 51.0145 175.099 51.4584C174.347 51.9023 173.493 52.1242 172.537 52.1242C171.582 52.1242 170.726 51.9023 169.97 51.4584C169.217 51.011 168.62 50.37 168.18 49.5355C167.743 48.6974 167.525 47.6924 167.525 46.5206C167.525 45.3451 167.743 44.3402 168.18 43.5056C168.62 42.6676 169.217 42.0266 169.97 41.5827C170.726 41.1388 171.582 40.9169 172.537 40.9169C173.493 40.9169 174.347 41.1388 175.099 41.5827C175.856 42.0266 176.452 42.6676 176.889 43.5056C177.33 44.3402 177.55 45.3451 177.55 46.5206ZM175.563 46.5206C175.563 45.6931 175.433 44.9953 175.174 44.4272C174.918 43.8554 174.563 43.424 174.109 43.1328C173.654 42.838 173.13 42.6907 172.537 42.6907C171.944 42.6907 171.42 42.838 170.966 43.1328C170.511 43.424 170.154 43.8554 169.895 44.4272C169.64 44.9953 169.512 45.6931 169.512 46.5206C169.512 47.348 169.64 48.0475 169.895 48.6193C170.154 49.1875 170.511 49.6189 170.966 49.9137C171.42 50.2049 171.944 50.3505 172.537 50.3505C173.13 50.3505 173.654 50.2049 174.109 49.9137C174.563 49.6189 174.918 49.1875 175.174 48.6193C175.433 48.0475 175.563 47.348 175.563 46.5206ZM187.597 44.0649C187.547 43.5997 187.337 43.2375 186.968 42.9783C186.602 42.7191 186.127 42.5894 185.541 42.5894C185.129 42.5894 184.775 42.6516 184.481 42.7759C184.186 42.9002 183.96 43.0688 183.804 43.2819C183.648 43.495 183.568 43.7382 183.564 44.0117C183.564 44.2389 183.616 44.436 183.719 44.6029C183.825 44.7698 183.969 44.9119 184.15 45.0291C184.331 45.1427 184.532 45.2386 184.752 45.3167C184.972 45.3948 185.194 45.4605 185.418 45.5138L186.441 45.7695C186.853 45.8654 187.249 45.995 187.629 46.1583C188.012 46.3217 188.355 46.5277 188.657 46.7762C188.962 47.0248 189.204 47.3249 189.381 47.6764C189.559 48.028 189.647 48.4399 189.647 48.9122C189.647 49.5514 189.484 50.1143 189.157 50.6008C188.831 51.0838 188.358 51.462 187.741 51.7354C187.126 52.0053 186.382 52.1402 185.509 52.1402C184.66 52.1402 183.923 52.0088 183.298 51.746C182.677 51.4833 182.19 51.0997 181.839 50.5955C181.491 50.0912 181.302 49.4769 181.274 48.7524H183.218C183.247 49.1324 183.364 49.4485 183.57 49.7006C183.776 49.9527 184.044 50.1409 184.374 50.2652C184.708 50.3895 185.081 50.4517 185.493 50.4517C185.922 50.4517 186.299 50.3877 186.622 50.2599C186.949 50.1285 187.204 49.9474 187.389 49.7166C187.574 49.4822 187.668 49.2088 187.671 48.8963C187.668 48.6122 187.584 48.3778 187.421 48.1931C187.258 48.0049 187.029 47.8487 186.734 47.7244C186.443 47.5965 186.102 47.4829 185.711 47.3835L184.47 47.0639C183.571 46.8331 182.861 46.4833 182.339 46.0145C181.821 45.5422 181.562 44.9154 181.562 44.1342C181.562 43.4914 181.736 42.9286 182.084 42.4456C182.435 41.9627 182.913 41.588 183.516 41.3217C184.12 41.0518 184.804 40.9169 185.567 40.9169C186.341 40.9169 187.02 41.0518 187.602 41.3217C188.188 41.588 188.648 41.9591 188.982 42.435C189.315 42.9073 189.488 43.4506 189.498 44.0649H187.597Z" fill="black"/>
<path d="M81.2853 69.9751V59.066H85.3762C86.2142 59.066 86.9174 59.2116 87.4855 59.5028C88.0573 59.794 88.4887 60.2024 88.7799 60.7279C89.0747 61.25 89.222 61.859 89.222 62.555C89.222 63.2546 89.0729 63.8618 88.7746 64.3767C88.4799 64.8881 88.0448 65.284 87.4696 65.5646C86.8943 65.8416 86.1876 65.9801 85.3495 65.9801H82.4358V64.3394H85.0832C85.5733 64.3394 85.9745 64.272 86.287 64.137C86.5995 63.9985 86.8304 63.7979 86.9795 63.5351C87.1322 63.2688 87.2085 62.9421 87.2085 62.555C87.2085 62.1679 87.1322 61.8377 86.9795 61.5642C86.8268 61.2872 86.5942 61.0777 86.2817 60.9357C85.9692 60.7901 85.5661 60.7173 85.0725 60.7173H83.2615V69.9751H81.2853ZM86.9209 65.0319L89.6215 69.9751H87.4163L84.7636 65.0319H86.9209ZM100.168 59.066H102.144V66.1931C102.144 66.9744 101.959 67.6615 101.59 68.2546C101.224 68.8476 100.709 69.311 100.045 69.6448C99.3813 69.9751 98.6054 70.1402 97.7176 70.1402C96.8263 70.1402 96.0486 69.9751 95.3845 69.6448C94.7204 69.311 94.2055 68.8476 93.8398 68.2546C93.474 67.6615 93.2911 66.9744 93.2911 66.1931V59.066H95.2673V66.028C95.2673 66.4826 95.3668 66.8874 95.5656 67.2425C95.768 67.5976 96.0521 67.8764 96.4179 68.0788C96.7837 68.2777 97.2169 68.3771 97.7176 68.3771C98.2183 68.3771 98.6516 68.2777 99.0173 68.0788C99.3866 67.8764 99.6707 67.5976 99.8696 67.2425C100.068 66.8874 100.168 66.4826 100.168 66.028V59.066ZM106.542 69.9751V59.066H110.633C111.471 59.066 112.174 59.2116 112.742 59.5028C113.314 59.794 113.746 60.2024 114.037 60.7279C114.332 61.25 114.479 61.859 114.479 62.555C114.479 63.2546 114.33 63.8618 114.031 64.3767C113.737 64.8881 113.302 65.284 112.726 65.5646C112.151 65.8416 111.444 65.9801 110.606 65.9801H107.693V64.3394H110.34C110.83 64.3394 111.231 64.272 111.544 64.137C111.856 63.9985 112.087 63.7979 112.236 63.5351C112.389 63.2688 112.465 62.9421 112.465 62.555C112.465 62.1679 112.389 61.8377 112.236 61.5642C112.084 61.2872 111.851 61.0777 111.539 60.9357C111.226 60.7901 110.823 60.7173 110.329 60.7173H108.518V69.9751H106.542ZM112.178 65.0319L114.878 69.9751H112.673L110.02 65.0319H112.178ZM119.949 69.9751H117.839L121.68 59.066H124.12L127.966 69.9751H125.856L122.942 61.3032H122.857L119.949 69.9751ZM120.018 65.6978H125.771V67.2851H120.018V65.6978ZM133.629 59.066V69.9751H131.652V59.066H133.629ZM143.947 62.0649C143.898 61.5997 143.688 61.2375 143.319 60.9783C142.953 60.7191 142.477 60.5894 141.891 60.5894C141.479 60.5894 141.126 60.6516 140.831 60.7759C140.536 60.9002 140.311 61.0688 140.155 61.2819C139.998 61.495 139.919 61.7382 139.915 62.0117C139.915 62.2389 139.966 62.436 140.069 62.6029C140.176 62.7698 140.32 62.9119 140.501 63.0291C140.682 63.1427 140.883 63.2386 141.103 63.3167C141.323 63.3948 141.545 63.4605 141.769 63.5138L142.791 63.7695C143.203 63.8654 143.599 63.995 143.979 64.1583C144.363 64.3217 144.705 64.5277 145.007 64.7762C145.313 65.0248 145.554 65.3249 145.732 65.6764C145.909 66.028 145.998 66.4399 145.998 66.9122C145.998 67.5514 145.835 68.1143 145.508 68.6008C145.181 69.0838 144.709 69.462 144.091 69.7354C143.477 70.0053 142.733 70.1402 141.859 70.1402C141.01 70.1402 140.274 70.0088 139.649 69.746C139.027 69.4833 138.541 69.0997 138.189 68.5955C137.841 68.0912 137.653 67.4769 137.624 66.7524H139.569C139.597 67.1324 139.714 67.4485 139.92 67.7006C140.126 67.9527 140.394 68.1409 140.725 68.2652C141.058 68.3895 141.431 68.4517 141.843 68.4517C142.273 68.4517 142.649 68.3877 142.972 68.2599C143.299 68.1285 143.555 67.9474 143.74 67.7166C143.924 67.4822 144.018 67.2088 144.022 66.8963C144.018 66.6122 143.935 66.3778 143.771 66.1931C143.608 66.0049 143.379 65.8487 143.084 65.7244C142.793 65.5965 142.452 65.4829 142.062 65.3835L140.82 65.0639C139.922 64.8331 139.212 64.4833 138.69 64.0145C138.171 63.5422 137.912 62.9154 137.912 62.1342C137.912 61.4914 138.086 60.9286 138.434 60.4456C138.786 59.9627 139.263 59.588 139.867 59.3217C140.471 59.0518 141.154 58.9169 141.918 58.9169C142.692 58.9169 143.37 59.0518 143.953 59.3217C144.539 59.588 144.998 59.9591 145.332 60.435C145.666 60.9073 145.838 61.4506 145.849 62.0649H143.947ZM83.2615 77.066V87.9751H81.2853V77.066H83.2615ZM96.6163 77.066V87.9751H94.8585L89.7182 80.5443H89.6277V87.9751H87.6515V77.066H89.4199L94.5549 84.5021H94.6508V77.066H96.6163ZM100.54 78.7226V77.066H109.244V78.7226H105.872V87.9751H103.912V78.7226H100.54ZM113.172 87.9751V77.066H120.267V78.7226H115.148V81.6843H119.9V83.3409H115.148V86.3185H120.31V87.9751H113.172ZM131.842 80.5497C131.753 80.262 131.63 80.0046 131.474 79.7773C131.321 79.5465 131.137 79.3494 130.92 79.186C130.707 79.0227 130.462 78.9002 130.185 78.8185C129.908 78.7333 129.606 78.6907 129.279 78.6907C128.693 78.6907 128.171 78.838 127.713 79.1328C127.255 79.4275 126.895 79.8608 126.632 80.4325C126.373 81.0007 126.243 81.6931 126.243 82.5099C126.243 83.3338 126.373 84.0316 126.632 84.6033C126.891 85.175 127.252 85.61 127.713 85.9083C128.175 86.2031 128.711 86.3505 129.322 86.3505C129.876 86.3505 130.355 86.2439 130.76 86.0309C131.169 85.8178 131.483 85.5159 131.703 85.1253C131.923 84.7311 132.033 84.2695 132.033 83.7404L132.481 83.8096H129.519V82.2649H133.946V83.5752C133.946 84.5092 133.747 85.3171 133.349 85.9989C132.951 86.6807 132.404 87.2063 131.708 87.5756C131.012 87.9414 130.213 88.1242 129.311 88.1242C128.306 88.1242 127.424 87.8987 126.664 87.4478C125.908 86.9932 125.316 86.3487 124.89 85.5142C124.468 84.6761 124.256 83.6818 124.256 82.5312C124.256 81.6505 124.381 80.8639 124.629 80.1715C124.881 79.479 125.233 78.8913 125.684 78.4083C126.135 77.9218 126.664 77.5525 127.271 77.3004C127.878 77.0447 128.539 76.9169 129.253 76.9169C129.856 76.9169 130.419 77.0056 130.941 77.1832C131.463 77.3572 131.927 77.6058 132.332 77.9289C132.74 78.2521 133.076 78.6356 133.338 79.0795C133.601 79.5234 133.773 80.0134 133.855 80.5497H131.842ZM138.107 87.9751V77.066H142.197C143.036 77.066 143.739 77.2116 144.307 77.5028C144.879 77.794 145.31 78.2024 145.601 78.7279C145.896 79.25 146.043 79.859 146.043 80.555C146.043 81.2546 145.894 81.8618 145.596 82.3767C145.301 82.8881 144.866 83.284 144.291 83.5646C143.716 83.8416 143.009 83.9801 142.171 83.9801H139.257V82.3394H141.904C142.395 82.3394 142.796 82.272 143.108 82.137C143.421 81.9985 143.652 81.7979 143.801 81.5351C143.953 81.2688 144.03 80.9421 144.03 80.555C144.03 80.1679 143.953 79.8377 143.801 79.5642C143.648 79.2872 143.415 79.0777 143.103 78.9357C142.79 78.7901 142.387 78.7173 141.894 78.7173H140.083V87.9751H138.107ZM143.742 83.0319L146.443 87.9751H144.238L141.585 83.0319H143.742ZM151.513 87.9751H149.404L153.245 77.066H155.684L159.53 87.9751H157.421L154.507 79.3032H154.422L151.513 87.9751ZM151.583 83.6978H157.335V85.2851H151.583V83.6978ZM166.914 87.9751H163.217V77.066H166.988C168.071 77.066 169.002 77.2844 169.779 77.7212C170.561 78.1544 171.161 78.7777 171.58 79.5909C171.999 80.4041 172.208 81.3771 172.208 82.5099C172.208 83.6463 171.997 84.6228 171.574 85.4396C171.155 86.2563 170.55 86.8831 169.758 87.3199C168.97 87.7567 168.022 87.9751 166.914 87.9751ZM165.193 86.2652H166.818C167.578 86.2652 168.212 86.1267 168.719 85.8497C169.227 85.5692 169.609 85.1519 169.865 84.598C170.12 84.0404 170.248 83.3444 170.248 82.5099C170.248 81.6754 170.12 80.9829 169.865 80.4325C169.609 79.8785 169.231 79.4648 168.73 79.1914C168.233 78.9144 167.615 78.7759 166.876 78.7759H165.193V86.2652ZM186.084 82.5206C186.084 83.696 185.864 84.7027 185.423 85.5408C184.987 86.3753 184.39 87.0145 183.634 87.4584C182.881 87.9023 182.027 88.1242 181.071 88.1242C180.116 88.1242 179.26 87.9023 178.504 87.4584C177.751 87.011 177.155 86.37 176.714 85.5355C176.277 84.6974 176.059 83.6924 176.059 82.5206C176.059 81.3451 176.277 80.3402 176.714 79.5056C177.155 78.6676 177.751 78.0266 178.504 77.5827C179.26 77.1388 180.116 76.9169 181.071 76.9169C182.027 76.9169 182.881 77.1388 183.634 77.5827C184.39 78.0266 184.987 78.6676 185.423 79.5056C185.864 80.3402 186.084 81.3451 186.084 82.5206ZM184.097 82.5206C184.097 81.6931 183.967 80.9953 183.708 80.4272C183.453 79.8554 183.097 79.424 182.643 79.1328C182.188 78.838 181.665 78.6907 181.071 78.6907C180.478 78.6907 179.955 78.838 179.5 79.1328C179.046 79.424 178.689 79.8554 178.429 80.4272C178.174 80.9953 178.046 81.6931 178.046 82.5206C178.046 83.348 178.174 84.0475 178.429 84.6193C178.689 85.1875 179.046 85.6189 179.5 85.9137C179.955 86.2049 180.478 86.3505 181.071 86.3505C181.665 86.3505 182.188 86.2049 182.643 85.9137C183.097 85.6189 183.453 85.1875 183.708 84.6193C183.967 84.0475 184.097 83.348 184.097 82.5206Z" fill="black"/>
</g>
<defs>
<clipPath id="clip0_222_546">
<rect width="241.381" height="90" fill="white"/>
</clipPath>
</defs>
</svg>
