<svg width="2107" height="2107" viewBox="0 0 2107 2107" fill="none" xmlns="http://www.w3.org/2000/svg">
<rect width="2107" height="2107" rx="320" fill="white"/>
<g clip-path="url(#clip0_8_7)">
<mask id="path-2-outside-1_8_7" maskUnits="userSpaceOnUse" x="148" y="433" width="1809" height="1241" fill="black">
<rect fill="white" x="148" y="433" width="1809" height="1241"/>
<path fill-rule="evenodd" clip-rule="evenodd" d="M1940.06 778.381C1919.39 852.502 1871.74 915.188 1805.83 954.806C1758.68 983.191 1705.42 997.834 1651.45 997.834C1638 997.834 1624.56 996.631 1611.12 994.825L1553.54 1198.23C1552.33 1204.15 1551.23 1210.17 1549.63 1216.08C1549.02 1218.59 1547.82 1220.9 1546.52 1223.11L1532.47 1272.55C1544.31 1262.62 1556.65 1253.4 1570.09 1245.37C1636.1 1205.65 1713.94 1192.92 1789.08 1209.56C1796.1 1211.17 1802.12 1215.48 1805.83 1221.7C1809.54 1227.82 1810.55 1235.24 1808.64 1242.16C1787.98 1316.28 1740.33 1378.87 1674.42 1418.59C1627.27 1446.97 1574 1461.62 1520.03 1461.62C1506.69 1461.62 1493.25 1460.41 1479.81 1458.61L1428.75 1639.04C1425.53 1650.28 1415.3 1658 1403.57 1658H341.519C332.691 1658 324.465 1653.59 319.65 1646.27C314.835 1638.94 314.032 1629.62 317.544 1621.49L364.491 1512.77H209.704C198.167 1512.77 187.935 1505.04 184.625 1493.91C181.314 1482.78 185.828 1470.84 195.559 1464.62L446.951 1302.74L171.885 1001.75C165.264 994.524 163.257 984.294 166.568 975.167C169.878 966.04 178.004 959.52 187.634 958.116L529.211 911.678C542.452 909.872 554.891 918.297 558.102 931.236L587.895 1051.39L718.306 739.164C792.039 562.839 963.078 449 1154.18 449H1731C1739.22 449 1746.95 452.811 1751.86 459.331C1756.88 465.85 1758.48 474.376 1756.18 482.199L1663.79 808.872C1675.62 798.942 1688.06 789.715 1701.5 781.59C1767.61 741.872 1845.36 729.134 1920.49 745.784C1927.52 747.389 1933.54 751.701 1937.25 757.92C1940.96 764.038 1941.96 771.46 1940.06 778.381ZM1495.96 1408.16C1548.42 1413.27 1601.49 1401.44 1647.43 1373.75C1693.38 1346.17 1728.59 1304.95 1748.65 1256C1695.89 1250.69 1643.12 1262.52 1597.08 1290.2C1551.03 1317.89 1515.92 1359.11 1495.96 1408.16ZM1521.74 652.305C1544.61 694.331 1579.82 727.429 1622.56 747.689C1628.57 700.85 1619.75 653.308 1596.77 611.283C1573.7 569.158 1538.49 536.059 1495.86 515.899C1489.84 562.739 1498.77 610.28 1521.74 652.305ZM1696.49 501.256H1570.59C1599.78 524.224 1624.46 552.809 1642.62 586.209C1649.94 599.448 1655.76 613.289 1660.78 627.331L1696.49 501.256ZM609.062 1136.55L622.304 1189.91L729.141 1121L760.339 1032.64C824.441 850.395 997.386 727.931 1190.59 727.931H1430.65C1441.49 727.931 1451.12 734.55 1455.13 744.68C1458.94 754.71 1456.33 766.144 1448.41 773.366C1416.11 802.954 1389.52 837.457 1368.96 875.269C1435.37 898.539 1490.54 944.877 1524.45 1006.96C1531.47 1019.8 1537.09 1033.14 1542 1046.68L1611.82 800.146C1554.04 775.773 1506.19 732.946 1475.79 677.38C1446.2 623.219 1435.67 561.635 1445.2 501.256H1154.18C984.244 501.256 832.165 602.557 766.659 759.324L609.062 1136.55ZM1300.64 1605.64C1271.75 1582.48 1247.37 1553.69 1229.22 1520.39C1206.54 1478.97 1194.91 1433.13 1194.51 1386.89C1147.36 1444.56 1082.15 1485.79 1008.92 1503.24L1088.27 1605.64H1300.64ZM1029.09 983.391L926.663 1284.69C901.383 1359.11 851.827 1420.19 788.528 1460.41H930.274C1059.58 1460.41 1173.94 1373.35 1208.55 1248.88L1281.68 955.408C1297.83 890.715 1327.93 831.138 1369.86 780.287H1190.59C1019.56 780.287 866.473 888.609 809.594 1049.99L800.867 1074.86L990.163 953.001C999.492 946.983 1011.63 947.484 1020.36 954.405C1029.19 961.225 1032.6 972.86 1029.09 983.391ZM1353.41 1452.59C1329.53 1408.86 1292.92 1374.66 1248.58 1353.89C1242.16 1402.44 1251.29 1451.79 1275.06 1495.32C1298.94 1538.95 1335.45 1573.25 1379.79 1594.11C1386.31 1545.46 1377.28 1496.22 1353.41 1452.59ZM821.331 1512.67L754.32 1605.64H1022.06L949.435 1511.86C943.015 1512.27 936.695 1512.67 930.274 1512.67H821.331ZM1420.42 1476.36L1491.54 1224.91C1433.16 1199.84 1385.01 1156.21 1354.21 1099.94C1338.16 1070.55 1327.83 1038.96 1322.91 1006.66L1259.11 1262.22C1255.8 1274.16 1251.69 1285.69 1247.17 1297.03C1312.18 1320.7 1366.05 1366.43 1399.35 1427.41C1407.98 1443.16 1414.9 1459.61 1420.42 1476.36ZM1400.15 1074.76C1423.93 1118.39 1460.55 1152.7 1504.88 1173.56C1511.41 1125.01 1502.38 1075.67 1478.5 1032.04C1454.63 988.406 1418.01 954.104 1373.57 933.342C1367.25 981.887 1376.28 1031.23 1400.15 1074.76ZM491.592 1273.96L575.757 1219.8L512.959 966.641L244.212 1003.25L491.592 1273.96ZM298.584 1460.31H608.26C729.943 1460.31 837.984 1382.98 877.107 1267.84L955.353 1037.55L298.584 1460.31ZM381.244 1605.64H689.817L756.727 1512.67H421.371L381.244 1605.64ZM1879.97 792.122C1827.2 786.806 1774.43 798.641 1728.39 826.324C1682.44 854.006 1647.23 895.229 1627.27 944.275C1679.94 949.39 1732.8 937.555 1778.75 909.872C1824.69 882.29 1859.9 841.067 1879.97 792.122Z"/>
</mask>
<path fill-rule="evenodd" clip-rule="evenodd" d="M1940.06 778.381C1919.39 852.502 1871.74 915.188 1805.83 954.806C1758.68 983.191 1705.42 997.834 1651.45 997.834C1638 997.834 1624.56 996.631 1611.12 994.825L1553.54 1198.23C1552.33 1204.15 1551.23 1210.17 1549.63 1216.08C1549.02 1218.59 1547.82 1220.9 1546.52 1223.11L1532.47 1272.55C1544.31 1262.62 1556.65 1253.4 1570.09 1245.37C1636.1 1205.65 1713.94 1192.92 1789.08 1209.56C1796.1 1211.17 1802.12 1215.48 1805.83 1221.7C1809.54 1227.82 1810.55 1235.24 1808.64 1242.16C1787.98 1316.28 1740.33 1378.87 1674.42 1418.59C1627.27 1446.97 1574 1461.62 1520.03 1461.62C1506.69 1461.62 1493.25 1460.41 1479.81 1458.61L1428.75 1639.04C1425.53 1650.28 1415.3 1658 1403.57 1658H341.519C332.691 1658 324.465 1653.59 319.65 1646.27C314.835 1638.94 314.032 1629.62 317.544 1621.49L364.491 1512.77H209.704C198.167 1512.77 187.935 1505.04 184.625 1493.91C181.314 1482.78 185.828 1470.84 195.559 1464.62L446.951 1302.74L171.885 1001.75C165.264 994.524 163.257 984.294 166.568 975.167C169.878 966.04 178.004 959.52 187.634 958.116L529.211 911.678C542.452 909.872 554.891 918.297 558.102 931.236L587.895 1051.39L718.306 739.164C792.039 562.839 963.078 449 1154.18 449H1731C1739.22 449 1746.95 452.811 1751.86 459.331C1756.88 465.85 1758.48 474.376 1756.18 482.199L1663.79 808.872C1675.62 798.942 1688.06 789.715 1701.5 781.59C1767.61 741.872 1845.36 729.134 1920.49 745.784C1927.52 747.389 1933.54 751.701 1937.25 757.92C1940.96 764.038 1941.96 771.46 1940.06 778.381ZM1495.96 1408.16C1548.42 1413.27 1601.49 1401.44 1647.43 1373.75C1693.38 1346.17 1728.59 1304.95 1748.65 1256C1695.89 1250.69 1643.12 1262.52 1597.08 1290.2C1551.03 1317.89 1515.92 1359.11 1495.96 1408.16ZM1521.74 652.305C1544.61 694.331 1579.82 727.429 1622.56 747.689C1628.57 700.85 1619.75 653.308 1596.77 611.283C1573.7 569.158 1538.49 536.059 1495.86 515.899C1489.84 562.739 1498.77 610.28 1521.74 652.305ZM1696.49 501.256H1570.59C1599.78 524.224 1624.46 552.809 1642.62 586.209C1649.94 599.448 1655.76 613.289 1660.78 627.331L1696.49 501.256ZM609.062 1136.55L622.304 1189.91L729.141 1121L760.339 1032.64C824.441 850.395 997.386 727.931 1190.59 727.931H1430.65C1441.49 727.931 1451.12 734.55 1455.13 744.68C1458.94 754.71 1456.33 766.144 1448.41 773.366C1416.11 802.954 1389.52 837.457 1368.96 875.269C1435.37 898.539 1490.54 944.877 1524.45 1006.96C1531.47 1019.8 1537.09 1033.14 1542 1046.68L1611.82 800.146C1554.04 775.773 1506.19 732.946 1475.79 677.38C1446.2 623.219 1435.67 561.635 1445.2 501.256H1154.18C984.244 501.256 832.165 602.557 766.659 759.324L609.062 1136.55ZM1300.64 1605.64C1271.75 1582.48 1247.37 1553.69 1229.22 1520.39C1206.54 1478.97 1194.91 1433.13 1194.51 1386.89C1147.36 1444.56 1082.15 1485.79 1008.92 1503.24L1088.27 1605.64H1300.64ZM1029.09 983.391L926.663 1284.69C901.383 1359.11 851.827 1420.19 788.528 1460.41H930.274C1059.58 1460.41 1173.94 1373.35 1208.55 1248.88L1281.68 955.408C1297.83 890.715 1327.93 831.138 1369.86 780.287H1190.59C1019.56 780.287 866.473 888.609 809.594 1049.99L800.867 1074.86L990.163 953.001C999.492 946.983 1011.63 947.484 1020.36 954.405C1029.19 961.225 1032.6 972.86 1029.09 983.391ZM1353.41 1452.59C1329.53 1408.86 1292.92 1374.66 1248.58 1353.89C1242.16 1402.44 1251.29 1451.79 1275.06 1495.32C1298.94 1538.95 1335.45 1573.25 1379.79 1594.11C1386.31 1545.46 1377.28 1496.22 1353.41 1452.59ZM821.331 1512.67L754.32 1605.64H1022.06L949.435 1511.86C943.015 1512.27 936.695 1512.67 930.274 1512.67H821.331ZM1420.42 1476.36L1491.54 1224.91C1433.16 1199.84 1385.01 1156.21 1354.21 1099.94C1338.16 1070.55 1327.83 1038.96 1322.91 1006.66L1259.11 1262.22C1255.8 1274.16 1251.69 1285.69 1247.17 1297.03C1312.18 1320.7 1366.05 1366.43 1399.35 1427.41C1407.98 1443.16 1414.9 1459.61 1420.42 1476.36ZM1400.15 1074.76C1423.93 1118.39 1460.55 1152.7 1504.88 1173.56C1511.41 1125.01 1502.38 1075.67 1478.5 1032.04C1454.63 988.406 1418.01 954.104 1373.57 933.342C1367.25 981.887 1376.28 1031.23 1400.15 1074.76ZM491.592 1273.96L575.757 1219.8L512.959 966.641L244.212 1003.25L491.592 1273.96ZM298.584 1460.31H608.26C729.943 1460.31 837.984 1382.98 877.107 1267.84L955.353 1037.55L298.584 1460.31ZM381.244 1605.64H689.817L756.727 1512.67H421.371L381.244 1605.64ZM1879.97 792.122C1827.2 786.806 1774.43 798.641 1728.39 826.324C1682.44 854.006 1647.23 895.229 1627.27 944.275C1679.94 949.39 1732.8 937.555 1778.75 909.872C1824.69 882.29 1859.9 841.067 1879.97 792.122Z" fill="black"/>
<path fill-rule="evenodd" clip-rule="evenodd" d="M1940.06 778.381C1919.39 852.502 1871.74 915.188 1805.83 954.806C1758.68 983.191 1705.42 997.834 1651.45 997.834C1638 997.834 1624.56 996.631 1611.12 994.825L1553.54 1198.23C1552.33 1204.15 1551.23 1210.17 1549.63 1216.08C1549.02 1218.59 1547.82 1220.9 1546.52 1223.11L1532.47 1272.55C1544.31 1262.62 1556.65 1253.4 1570.09 1245.37C1636.1 1205.65 1713.94 1192.92 1789.08 1209.56C1796.1 1211.17 1802.12 1215.48 1805.83 1221.7C1809.54 1227.82 1810.55 1235.24 1808.64 1242.16C1787.98 1316.28 1740.33 1378.87 1674.42 1418.59C1627.27 1446.97 1574 1461.62 1520.03 1461.62C1506.69 1461.62 1493.25 1460.41 1479.81 1458.61L1428.75 1639.04C1425.53 1650.28 1415.3 1658 1403.57 1658H341.519C332.691 1658 324.465 1653.59 319.65 1646.27C314.835 1638.94 314.032 1629.62 317.544 1621.49L364.491 1512.77H209.704C198.167 1512.77 187.935 1505.04 184.625 1493.91C181.314 1482.78 185.828 1470.84 195.559 1464.62L446.951 1302.74L171.885 1001.75C165.264 994.524 163.257 984.294 166.568 975.167C169.878 966.04 178.004 959.52 187.634 958.116L529.211 911.678C542.452 909.872 554.891 918.297 558.102 931.236L587.895 1051.39L718.306 739.164C792.039 562.839 963.078 449 1154.18 449H1731C1739.22 449 1746.95 452.811 1751.86 459.331C1756.88 465.85 1758.48 474.376 1756.18 482.199L1663.79 808.872C1675.62 798.942 1688.06 789.715 1701.5 781.59C1767.61 741.872 1845.36 729.134 1920.49 745.784C1927.52 747.389 1933.54 751.701 1937.25 757.92C1940.96 764.038 1941.96 771.46 1940.06 778.381ZM1495.96 1408.16C1548.42 1413.27 1601.49 1401.44 1647.43 1373.75C1693.38 1346.17 1728.59 1304.95 1748.65 1256C1695.89 1250.69 1643.12 1262.52 1597.08 1290.2C1551.03 1317.89 1515.92 1359.11 1495.96 1408.16ZM1521.74 652.305C1544.61 694.331 1579.82 727.429 1622.56 747.689C1628.57 700.85 1619.75 653.308 1596.77 611.283C1573.7 569.158 1538.49 536.059 1495.86 515.899C1489.84 562.739 1498.77 610.28 1521.74 652.305ZM1696.49 501.256H1570.59C1599.78 524.224 1624.46 552.809 1642.62 586.209C1649.94 599.448 1655.76 613.289 1660.78 627.331L1696.49 501.256ZM609.062 1136.55L622.304 1189.91L729.141 1121L760.339 1032.64C824.441 850.395 997.386 727.931 1190.59 727.931H1430.65C1441.49 727.931 1451.12 734.55 1455.13 744.68C1458.94 754.71 1456.33 766.144 1448.41 773.366C1416.11 802.954 1389.52 837.457 1368.96 875.269C1435.37 898.539 1490.54 944.877 1524.45 1006.96C1531.47 1019.8 1537.09 1033.14 1542 1046.68L1611.82 800.146C1554.04 775.773 1506.19 732.946 1475.79 677.38C1446.2 623.219 1435.67 561.635 1445.2 501.256H1154.18C984.244 501.256 832.165 602.557 766.659 759.324L609.062 1136.55ZM1300.64 1605.64C1271.75 1582.48 1247.37 1553.69 1229.22 1520.39C1206.54 1478.97 1194.91 1433.13 1194.51 1386.89C1147.36 1444.56 1082.15 1485.79 1008.92 1503.24L1088.27 1605.64H1300.64ZM1029.09 983.391L926.663 1284.69C901.383 1359.11 851.827 1420.19 788.528 1460.41H930.274C1059.58 1460.41 1173.94 1373.35 1208.55 1248.88L1281.68 955.408C1297.83 890.715 1327.93 831.138 1369.86 780.287H1190.59C1019.56 780.287 866.473 888.609 809.594 1049.99L800.867 1074.86L990.163 953.001C999.492 946.983 1011.63 947.484 1020.36 954.405C1029.19 961.225 1032.6 972.86 1029.09 983.391ZM1353.41 1452.59C1329.53 1408.86 1292.92 1374.66 1248.58 1353.89C1242.16 1402.44 1251.29 1451.79 1275.06 1495.32C1298.94 1538.95 1335.45 1573.25 1379.79 1594.11C1386.31 1545.46 1377.28 1496.22 1353.41 1452.59ZM821.331 1512.67L754.32 1605.64H1022.06L949.435 1511.86C943.015 1512.27 936.695 1512.67 930.274 1512.67H821.331ZM1420.42 1476.36L1491.54 1224.91C1433.16 1199.84 1385.01 1156.21 1354.21 1099.94C1338.16 1070.55 1327.83 1038.96 1322.91 1006.66L1259.11 1262.22C1255.8 1274.16 1251.69 1285.69 1247.17 1297.03C1312.18 1320.7 1366.05 1366.43 1399.35 1427.41C1407.98 1443.16 1414.9 1459.61 1420.42 1476.36ZM1400.15 1074.76C1423.93 1118.39 1460.55 1152.7 1504.88 1173.56C1511.41 1125.01 1502.38 1075.67 1478.5 1032.04C1454.63 988.406 1418.01 954.104 1373.57 933.342C1367.25 981.887 1376.28 1031.23 1400.15 1074.76ZM491.592 1273.96L575.757 1219.8L512.959 966.641L244.212 1003.25L491.592 1273.96ZM298.584 1460.31H608.26C729.943 1460.31 837.984 1382.98 877.107 1267.84L955.353 1037.55L298.584 1460.31ZM381.244 1605.64H689.817L756.727 1512.67H421.371L381.244 1605.64ZM1879.97 792.122C1827.2 786.806 1774.43 798.641 1728.39 826.324C1682.44 854.006 1647.23 895.229 1627.27 944.275C1679.94 949.39 1732.8 937.555 1778.75 909.872C1824.69 882.29 1859.9 841.067 1879.97 792.122Z" stroke="black" stroke-width="32" mask="url(#path-2-outside-1_8_7)"/>
</g>
<defs>
<clipPath id="clip0_8_7">
<rect width="1776" height="1209" fill="white" transform="translate(165 449)"/>
</clipPath>
</defs>
</svg>
