<svg version="1.2" xmlns="http://www.w3.org/2000/svg" viewBox="0 0 1772 1206" width="1772" height="1206"><style>.a{fill:currentColor}</style><path fill-rule="evenodd" class="a" d="m1770.4 328.7c-20.6 73.9-68.1 136.4-133.8 175.9-47 28.3-100.1 42.9-153.9 42.9-13.4 0-26.8-1.2-40.2-3l-57.4 202.8c-1.2 5.9-2.3 11.9-3.9 17.8-0.6 2.5-1.8 4.8-3.1 7l-14 49.3c11.8-9.9 24.1-19.1 37.5-27.1 65.8-39.6 143.4-52.3 218.3-35.7 7 1.6 13 5.9 16.7 12.1 3.7 6.1 4.7 13.5 2.8 20.4-20.6 73.9-68.1 136.3-133.8 175.9-47 28.3-100.1 42.9-153.9 42.9-13.3 0-26.7-1.2-40.1-3l-50.9 179.9c-3.2 11.2-13.4 18.9-25.1 18.9h-1058.7c-8.8 0-17-4.4-21.8-11.7-4.8-7.3-5.6-16.6-2.1-24.7l46.8-108.4h-154.3c-11.5 0-21.7-7.7-25-18.8-3.3-11.1 1.2-23 10.9-29.2l250.6-161.4-274.2-300.1c-6.6-7.2-8.6-17.4-5.3-26.5 3.3-9.1 11.4-15.6 21-17l340.5-46.3c13.2-1.8 25.6 6.6 28.8 19.5l29.7 119.8 130-311.3c73.5-175.8 244-289.3 434.5-289.3h575c8.2 0 15.9 3.8 20.8 10.3 5 6.5 6.6 15 4.3 22.8l-92.1 325.7c11.8-9.9 24.2-19.1 37.6-27.2 65.9-39.6 143.4-52.3 218.3-35.7 7 1.6 13 5.9 16.7 12.1 3.7 6.1 4.7 13.5 2.8 20.4zm-442.7 627.9c52.3 5.1 105.2-6.7 151-34.3 45.8-27.5 80.9-68.6 100.9-117.4-52.6-5.3-105.2 6.5-151.1 34.1-45.9 27.6-80.9 68.7-100.8 117.6zm25.7-753.6c22.8 41.9 57.9 74.9 100.5 95.1 6-46.7-2.8-94.1-25.7-136-23-42-58.1-75-100.6-95.1-6 46.7 2.9 94.1 25.8 136zm174.2-150.6h-125.5c29.1 22.9 53.7 51.4 71.8 84.7 7.3 13.2 13.1 27 18.1 41zm-1084 633.4l13.2 53.2 106.5-68.7 31.1-88.1c63.9-181.7 236.3-303.8 428.9-303.8h239.3c10.8 0 20.4 6.6 24.4 16.7 3.8 10 1.2 21.4-6.7 28.6-32.2 29.5-58.7 63.9-79.2 101.6 66.2 23.2 121.2 69.4 155 131.3 7 12.8 12.6 26.1 17.5 39.6l69.6-245.8c-57.6-24.3-105.3-67-135.6-122.4-29.5-54-40-115.4-30.5-175.6h-290.1c-169.4 0-321 101-386.3 257.3zm689.4 467.7c-28.8-23.1-53.1-51.8-71.2-85-22.6-41.3-34.2-87-34.6-133.1-47 57.5-112 98.6-185 116l79.1 102.1zm-270.7-620.4l-102.1 300.4c-25.2 74.2-74.6 135.1-137.7 175.2 0 0 141.3 0 141.3 0 128.9 0 242.9-86.8 277.4-210.9l72.9-292.6c16.1-64.5 46.1-123.9 87.9-174.6h-178.7c-170.5 0-323.1 108-379.8 268.9l-8.7 24.8 188.7-121.5c9.3-6 21.4-5.5 30.1 1.4 8.8 6.8 12.2 18.4 8.7 28.9zm323.3 467.8c-23.8-43.6-60.3-77.7-104.5-98.4-6.4 48.4 2.7 97.6 26.4 141 23.8 43.5 60.2 77.7 104.4 98.5 6.5-48.5-2.5-97.6-26.3-141.1zm-530.4 59.9l-66.8 92.7h266.9l-72.4-93.5c-6.4 0.4-12.7 0.8-19.1 0.8zm597.2-36.2l70.9-250.7c-58.2-25-106.2-68.5-136.9-124.6-16-29.3-26.3-60.8-31.2-93l-63.6 254.8c-3.3 11.9-7.4 23.4-11.9 34.7 64.8 23.6 118.5 69.2 151.7 130 8.6 15.7 15.5 32.1 21 48.8zm-20.2-400.4c23.7 43.5 60.2 77.7 104.4 98.5 6.5-48.4-2.5-97.6-26.3-141.1-23.8-43.5-60.3-77.7-104.6-98.4-6.3 48.4 2.7 97.6 26.5 141zm-905.7 198.6l83.9-54-62.6-252.4-267.9 36.5zm-192.4 185.8h308.7c121.3 0 229-77.1 268-191.9l78-229.6zm82.4 144.9h307.6l66.7-92.7h-334.3zm1494-811.1c-52.6-5.3-105.2 6.5-151.1 34.1-45.8 27.6-80.9 68.7-100.8 117.6 52.5 5.1 105.2-6.7 151-34.3 45.8-27.5 80.9-68.6 100.9-117.4z"/></svg>